<svg width="70" height="40" viewBox="0 0 70 40" fill="none" xmlns="http://www.w3.org/2000/svg">
<g clip-path="url(#clip0_534_19936)">
<path d="M43.6814 0C43.5808 0 43.3684 0 43.4466 0.178384H43.838L43.6814 0Z" fill="#547050" fill-opacity="0.2"/>
<path d="M43.2676 1.1127C43.3933 1.20068 43.5431 1.25332 43.6995 1.26446C43.8558 1.27561 44.0124 1.24481 44.1508 1.17566C43.7595 1.04974 43.8937 1.04974 43.4353 0.934317C43.4196 0.904815 43.4125 0.871983 43.4145 0.839084C43.4166 0.806185 43.4278 0.774363 43.447 0.74678C43.4662 0.719197 43.4928 0.696813 43.5241 0.681851C43.5554 0.66689 43.5903 0.659872 43.6253 0.661495C43.5135 0.661495 43.6253 0.420151 43.3906 0.388672C43.3422 0.438706 43.3079 0.499186 43.2905 0.56472C43.2731 0.630254 43.2733 0.698805 43.291 0.764258C43.3087 0.829712 43.3434 0.890035 43.392 0.939848C43.4406 0.98966 43.5015 1.02741 43.5694 1.04974C43.4465 1.14418 43.3347 1.1127 43.2676 1.1127Z" fill="#547050" fill-opacity="0.2"/>
<path d="M49.6287 14.061V13.9561C49.6225 13.9908 49.6225 14.0263 49.6287 14.061Z" fill="#547050" fill-opacity="0.2"/>
<path d="M58.1044 18.447C58.0862 18.4357 58.0648 18.4297 58.0429 18.4297C58.0211 18.4297 57.9997 18.4357 57.9814 18.447C58.0038 18.489 58.1044 18.489 58.1044 18.447Z" fill="#547050" fill-opacity="0.2"/>
<path d="M59.5348 19.2446H59.4453C59.4453 19.2446 59.5012 19.2676 59.5348 19.2446Z" fill="#547050" fill-opacity="0.2"/>
<path d="M49.6289 14.0605L49.7519 14.2914C49.8525 14.2179 49.7072 14.155 49.6289 14.0605Z" fill="#547050" fill-opacity="0.2"/>
<path d="M44.6884 2.80196C44.6611 2.75741 44.6174 2.72381 44.5654 2.70752L44.6325 2.81245L44.6884 2.80196Z" fill="#547050" fill-opacity="0.2"/>
<path d="M46.5447 11.2065V11.1436H46.377L46.5447 11.2065Z" fill="#547050" fill-opacity="0.2"/>
<path d="M44.8662 8.49997C44.8662 8.57342 45.1793 8.49997 45.3134 8.43701C45.2723 8.45814 45.2262 8.46921 45.1793 8.46921C45.1324 8.46921 45.0862 8.45814 45.0451 8.43701L44.8662 8.49997Z" fill="#547050" fill-opacity="0.2"/>
<path d="M48.0422 13.0112C48.0115 13.0349 47.9915 13.0687 47.9863 13.1057C48.0091 13.0765 48.0279 13.0448 48.0422 13.0112Z" fill="#547050" fill-opacity="0.2"/>
<path d="M0.894505 20.6191L0.849783 20.5666L0.670898 20.5142L0.894505 20.6191Z" fill="#547050" fill-opacity="0.2"/>
<path d="M62.3977 20.252C62.2971 20.2635 62.3418 20.275 62.3977 20.252V20.252Z" fill="#547050" fill-opacity="0.2"/>
<path d="M50.0878 18.4263C50.3896 18.6886 49.5847 18.7621 50.0878 19.0559C49.9983 18.9404 50.4679 18.6047 50.0878 18.4263Z" fill="#547050" fill-opacity="0.2"/>
<path d="M44.6875 2.88574V3.00117C44.7003 2.96363 44.7003 2.92327 44.6875 2.88574Z" fill="#547050" fill-opacity="0.2"/>
<path d="M69.2846 21.0597C69.2909 21.0145 69.2909 20.9686 69.2846 20.9233C69.2723 20.9681 69.2723 21.015 69.2846 21.0597Z" fill="#547050" fill-opacity="0.2"/>
<path d="M64.2529 19.937L64.3759 20C64.3401 19.9711 64.2982 19.9496 64.2529 19.937Z" fill="#547050" fill-opacity="0.2"/>
<path d="M67.7528 18.9923C67.6857 18.9923 67.6634 18.9294 67.5739 18.9923C67.5739 18.9923 67.6746 18.9504 67.7528 18.9923Z" fill="#547050" fill-opacity="0.2"/>
<path d="M65.0137 18.9717V19.0241H65.1031L65.0137 18.9717Z" fill="#547050" fill-opacity="0.2"/>
<path d="M11.9622 20.4723C11.9027 20.3936 11.8609 20.3043 11.8392 20.21C11.8728 20.4198 11.4703 20.4828 11.9622 20.4723Z" fill="#547050" fill-opacity="0.2"/>
<path d="M44.4863 2.84356C44.5111 2.83374 44.5377 2.82869 44.5646 2.82869C44.5915 2.82869 44.6181 2.83374 44.6429 2.84356V2.7701C44.6121 2.76764 44.5812 2.77319 44.5536 2.78615C44.526 2.79911 44.5027 2.81897 44.4863 2.84356Z" fill="#547050" fill-opacity="0.2"/>
<path d="M67.6065 21.3225L67.1816 21.27C67.3202 21.305 67.463 21.3226 67.6065 21.3225Z" fill="#547050" fill-opacity="0.2"/>
<path d="M31.6065 20.6504H31.5059C31.5059 20.6504 31.5841 20.6849 31.6065 20.6504Z" fill="#547050" fill-opacity="0.2"/>
<path d="M65.9307 21.3017C65.8695 21.2128 65.7848 21.1405 65.6847 21.0918C65.6806 21.1196 65.6806 21.1479 65.6847 21.1757L65.9307 21.3017Z" fill="#547050" fill-opacity="0.2"/>
<path d="M8.9108 20.8707C9.32447 20.8707 9.11205 20.4929 9.20149 20.2726C9.70461 20.1676 9.43628 20.5664 9.5928 20.7657C9.90585 20.6608 10.1518 20.3145 10.3754 20.325C10.3754 20.388 10.4425 20.4195 10.3754 20.4929C10.7108 20.1886 11.3481 20.4929 11.7282 20.1047C11.7317 20.1361 11.7317 20.1677 11.7282 20.1991C11.6921 20.0259 11.6921 19.8477 11.7282 19.6744C11.9183 19.6744 12.0748 19.4331 12.1419 19.6744C12.0301 19.6744 12.0189 19.7689 11.963 19.8423L12.1643 19.7374C12.332 20.1047 11.8959 19.8633 11.8848 20.1257C12.2649 20.0207 12.7121 19.7164 13.0028 19.8214C13.0028 20.1781 12.3208 19.9368 12.7121 20.2621L12.2649 20.1152C12.6003 20.6818 11.9854 20.1152 12.2649 20.6818C12.8575 20.7867 12.9245 20.5034 13.5171 20.6188C13.6513 20.4195 13.5171 20.325 13.6065 20.1257C14.4562 19.7794 14.2662 21.0281 14.8811 20.5664C15.0488 20.325 15.1159 19.8738 15.5519 20.1152L15.3954 20.5244C15.9768 20.5244 15.7308 19.9473 16.3345 20.2201C16.2227 20.3775 15.8761 20.346 15.9656 20.3985C16.3457 20.7238 16.2451 20.1781 16.547 20.1781L16.6029 20.5349C17.2066 20.5349 17.8886 20.2306 18.5594 20.1781C18.5594 20.2831 18.4029 20.3985 18.5594 20.5034C19.4504 20.4036 20.354 20.5006 21.198 20.7867L21.511 20.4824C21.5893 20.4824 21.6452 20.6293 21.5669 20.6818C21.8911 20.8077 21.5669 20.4929 21.7458 20.367C21.7803 20.3652 21.8145 20.3735 21.8438 20.3906C21.8731 20.4078 21.896 20.433 21.9095 20.4628C21.9229 20.4927 21.9263 20.5257 21.919 20.5574C21.9117 20.589 21.8942 20.6178 21.8688 20.6398C22.2042 20.4578 22.5772 20.3449 22.9627 20.3088C23.3483 20.2726 23.7376 20.3139 24.1048 20.43L23.993 20.5244C24.4514 20.6503 24.5297 19.8948 24.9545 20.1886L24.8651 20.2411C25.8713 20.388 26.9894 20.1152 27.7608 20.5874C27.9061 20.1466 28.7558 20.7972 28.8229 20.1781C29.3931 20.4929 29.2254 20.5978 30.0416 20.8182C30.254 20.8182 30.3658 20.43 30.6341 20.3775V20.6923L31.0031 20.3565L31.1932 20.7448L31.4391 20.6713C31.3849 20.6542 31.3377 20.6218 31.3037 20.5787C31.2697 20.5355 31.2506 20.4836 31.2491 20.43C31.4337 20.3892 31.6275 20.4061 31.801 20.4781C31.9745 20.55 32.1183 20.6731 32.2106 20.8287L33.1385 20.5664C33.1385 20.6923 32.9596 20.7448 32.8367 20.8182C33.3398 20.4929 32.9261 21.1645 33.3845 20.8182C33.3174 20.7448 33.3845 20.6293 33.3845 20.5664C33.5508 20.6602 33.7365 20.7199 33.9291 20.7417C34.1218 20.7634 34.3172 20.7465 34.5025 20.6923L34.4243 20.9126C35.1174 20.9756 35.8777 20.8287 36.6603 20.8392C36.6055 20.8159 36.5591 20.7782 36.5265 20.7308C36.4939 20.6833 36.4766 20.6281 36.4766 20.5716C36.4766 20.5152 36.4939 20.4599 36.5265 20.4124C36.5591 20.365 36.6055 20.3274 36.6603 20.304L36.7498 20.6503C36.8951 20.4405 36.515 20.5244 36.8168 20.2621C37.1075 20.2621 37.0069 20.6608 36.8168 20.7657L37.1634 20.6503C37.1634 20.7552 37.1634 20.8077 37.0852 20.9336C37.2305 20.7238 37.6777 21.2799 37.8902 20.9336V21.0281C38.6616 21.0281 39.0082 20.9336 39.6455 20.9231C39.6455 20.6188 39.9026 20.6923 40.0927 20.4509C40.5852 20.624 41.1005 20.7334 41.6244 20.7762C42.0157 20.6293 41.7362 20.5244 41.9151 20.346C41.9151 20.6188 42.4964 20.5978 42.2058 20.7867C42.7857 20.7779 43.3614 20.6932 43.9163 20.5349C43.8269 20.43 43.7151 20.3775 43.771 20.2831C43.8103 20.2771 43.8506 20.279 43.8891 20.2888C43.9275 20.2986 43.9633 20.316 43.994 20.3399C44.0247 20.3637 44.0497 20.3935 44.0671 20.4271C44.0846 20.4607 44.0942 20.4975 44.0952 20.5349C45.0456 20.1466 46.2754 21.3429 47.0356 20.7972L47.8183 20.5139C48.176 20.5664 47.6058 20.7133 47.8183 20.8812C48.6792 20.4509 49.1599 20.9651 49.8531 20.6713C50.3897 21.4688 51.7649 20.6713 52.4916 21.154V20.9651C52.6817 20.7867 52.7264 21.07 52.8606 21.1225C52.8606 20.9756 52.6593 20.9441 52.7711 20.8497C54.4266 20.8179 56.0796 20.9837 57.6905 21.3429C58.283 21.3429 58.0371 20.3775 58.8085 20.8392L58.5849 21.175C59.8036 20.7762 61.0558 21.175 62.2409 20.8812C62.1626 20.9651 62.1626 21.0595 62.0508 21.0595C62.2968 21.3114 62.9676 21.0595 62.9788 20.8812C63.1577 20.8812 62.9788 21.0595 63.1241 21.175C63.2695 21.2904 63.7614 20.8602 63.8844 21.112C63.8844 21.112 63.8173 21.1855 63.7726 21.2065C63.9403 21.091 64.5328 21.2064 64.3763 20.9546C64.8235 21.1015 65.226 20.8392 65.5726 21.0071C65.8074 20.6923 66.3329 21.175 66.4111 20.7133C66.4111 21.196 67.1826 21.112 67.4621 20.8917C67.3726 21.0281 67.708 21.0386 67.5962 21.2379C67.9093 21.2379 68.2112 21.1435 68.1553 20.9021C68.7366 21.4793 69.3404 20.4614 69.6646 21.196H69.8099L70 18.4572C69.1522 18.5767 68.2969 18.6433 67.4397 18.6566C67.5403 18.1844 68.3789 18.7196 68.4012 18.2264C67.5851 18.3208 67.0708 18.6671 66.2993 18.4467C66.1093 18.3523 66.4447 18.2579 66.5229 18.1844C65.7068 18.2789 65.0136 17.9221 64.2869 18.069C64.2869 18.069 64.3875 17.985 64.4657 17.9641C64.3204 17.9641 64.1527 17.8486 64.1303 18.0585H64.2757C64.4434 18.3943 63.6049 18.6146 63.549 18.7615C63.8955 18.1949 62.8893 18.4887 63.4148 17.7857C63.3517 17.7997 63.2945 17.8312 63.2506 17.8761C63.2068 17.921 63.1783 17.9773 63.1688 18.0375C63.0458 17.9746 63.0235 17.8801 63.1688 17.7437C62.6545 17.7437 62.7775 18.027 62.3415 17.9431C62.3415 17.8381 62.4645 17.8172 62.5316 17.7017C62.4119 17.802 62.2647 17.8689 62.1067 17.8949C61.9486 17.9208 61.786 17.9048 61.6371 17.8486C61.6371 17.7962 61.6371 17.7017 61.7601 17.7227C61.1228 17.6283 60.5415 18.0165 59.893 17.6598C60.2172 17.2715 59.6918 17.4499 59.77 17.0721H59.3675L59.457 17.303C59.1439 17.1981 58.7638 17.3974 58.529 17.1876L58.8197 17.1036L58.1936 17.0092L58.4843 17.24C58.093 17.345 58.3613 17.7227 57.9588 17.5024C58.0594 17.5024 57.6346 17.3974 57.5451 17.1141C57.455 17.1733 57.3477 17.205 57.2377 17.205C57.1277 17.205 57.0204 17.1733 56.9302 17.1141C56.9302 16.9777 57.1426 16.7259 57.1315 16.6314C56.852 16.8938 56.36 16.4635 56.0134 16.7049C56.0616 16.671 56.1022 16.6285 56.1329 16.5799C56.1636 16.5313 56.1838 16.4775 56.1923 16.4216L55.9575 16.6104C55.8569 16.4845 55.8457 16.4321 55.9575 16.2956C55.5439 16.0753 55.8905 16.7993 55.4656 16.4006C55.4656 16.4006 55.4656 16.4006 55.6109 16.4006C55.1414 16.1173 54.56 16.1278 54.1463 15.8025C54.2022 15.3932 54.5935 15.9074 54.6047 15.5401C53.8685 15.3973 53.1622 15.142 52.514 14.7846L52.6034 14.8896C52.201 15.3093 52.3239 14.3859 51.8655 14.4174C51.9662 14.4174 52.1562 14.218 52.1003 14.26C51.6105 13.9464 51.076 13.6991 50.5127 13.5254L50.6916 13.473C50.5351 13.2211 50.1773 12.9483 49.9984 12.707C49.8307 12.707 49.7189 12.623 49.6407 12.8329C49.6156 12.6073 49.5281 12.3918 49.3869 12.2077C49.2457 12.0237 49.0557 11.8775 48.8357 11.7836C48.4332 11.5737 48.0419 11.3324 48.0866 10.8077C48.1425 10.8812 48.3326 10.9126 48.2878 10.8077C48.2431 10.7028 47.9301 10.5034 47.7624 10.346C47.5723 10.5244 47.6841 10.4929 47.6058 10.7238C47.5086 10.7246 47.4126 10.7041 47.3253 10.6641C47.2379 10.624 47.1617 10.5654 47.1027 10.4929C47.4381 10.6608 47.4493 10.2726 47.494 10.0942C47.494 10.0942 47.3375 10.1571 47.2816 10.2096C47.4717 9.67445 46.8009 10.4195 46.7897 9.84234H46.9238C46.7561 9.71642 46.5102 9.65346 46.4431 9.45409C46.6667 9.24423 46.6667 9.55902 46.8903 9.45409C46.7338 9.22324 46.0965 9.22324 46.2418 8.86647C46.376 8.93992 46.4655 9.08683 46.5996 9.14979C46.7673 8.76154 46.6779 8.77203 46.5996 8.56217L46.5102 8.08998V8.22639C45.6493 8.22639 46.063 7.64926 45.3921 7.40792C46.0294 7.65976 45.6828 7.40792 46.0071 7.282C46.0071 7.14559 46.0741 6.93573 46.1748 6.94622C45.8394 6.84129 46.1748 6.54748 45.7387 6.39008C45.8394 6.33762 45.6605 6.16972 45.94 6.12775C45.8058 5.90739 45.8058 6.29564 45.6605 6.29564C45.135 6.00183 45.6605 5.18337 45.012 4.73216C44.6431 4.25997 44.2518 4.25997 43.894 3.80876C44.0058 3.5989 44.3077 3.80876 44.3077 3.80876C44.338 3.69326 44.3376 3.57252 44.3064 3.45722C44.2752 3.34191 44.2142 3.23561 44.1288 3.14769C44.2406 3.14769 44.2965 3.09522 44.3971 2.99029C44.3077 2.79092 43.9722 2.99029 44.0505 2.63352C44.2156 2.64459 44.3779 2.68 44.5313 2.73845C44.3636 2.5181 44.0952 2.32922 43.9387 2.09837C44.0952 1.99344 44.2518 2.18232 44.3971 2.24527C44.2406 1.98295 44.0281 1.55272 43.7151 1.53174L43.6592 1.7416C43.6592 1.63667 43.894 1.62618 43.9722 1.7416C44.2629 1.93048 43.9722 2.11936 43.8604 2.16133L43.7486 1.99344C43.1784 2.32922 44.0505 2.69648 44.1176 3.04276H43.6257L44.1064 3.31558C44.017 3.431 43.7822 3.54643 43.6592 3.38903C43.5139 3.70383 43.8828 3.57791 43.6592 3.86122C43.6592 3.86122 43.6592 3.86122 43.5809 3.86122L43.7934 4.08158C43.6816 4.08158 43.4915 4.2075 43.5027 4.08158C43.3909 4.60624 44.0729 4.72167 43.7934 4.98399C44.1623 5.57161 44.1399 4.98399 44.6878 5.30928L43.9946 5.86542H44.3412C44.3412 5.93887 44.3412 6.07529 44.2406 6.09627C44.5536 6.25367 44.3636 6.00183 44.6319 6.09627C44.4418 6.50551 45.0903 6.89375 44.6319 7.14559C44.9226 7.14559 44.7101 6.77833 45.0008 7.04066C44.4977 7.34496 45.258 7.38693 45.135 7.75419C44.8108 7.75419 44.8443 7.46039 44.7213 7.83814C45.258 7.83814 44.8667 8.41527 45.0679 8.61464C45.4369 8.46773 45.4816 9.05535 45.8058 9.38064C45.6717 9.38064 46.0071 10.1886 46.1189 10.6083H46.0518C46.4543 10.4719 46.5996 10.8707 46.8679 11.07C46.7898 11.1179 46.6985 11.1434 46.6052 11.1434C46.5119 11.1434 46.4206 11.1179 46.3425 11.07L46.5214 11.3114C46.5978 11.303 46.6753 11.312 46.7473 11.3375C46.8192 11.3631 46.8836 11.4045 46.935 11.4583L46.6332 11.5632C46.8903 11.878 47.4046 11.9934 47.5835 12.4866C47.8183 12.3292 47.9413 11.7311 48.4332 11.9829C48.3214 12.0984 48.1425 12.2663 47.9972 12.2033C47.9972 12.2033 48.1984 12.2033 48.2096 12.3502H47.8742C47.9413 12.5811 48.1201 12.3502 48.2208 12.4446C48.0531 12.5811 48.2208 12.644 48.0419 12.728C47.863 12.8119 48.0419 12.5601 47.8965 12.5601C48.0128 12.743 48.0526 12.9598 48.0083 13.1687C48.0866 13.0742 48.2319 12.9798 48.3549 13.0742C48.6344 13.3471 48.2543 13.3471 48.3549 13.5779C48.5338 13.5779 48.6121 13.8193 48.8469 13.5779C48.9363 13.6619 48.8469 13.7773 48.8469 13.8717C49.104 13.8717 49.5959 14.4803 49.663 14.0816C50.3897 14.26 50.6245 15.0784 51.273 15.3303L51.2059 15.4142C51.6084 15.5296 51.9885 15.8339 52.3239 15.7815C52.3759 15.8323 52.4049 15.9 52.4049 15.9704C52.4049 16.0408 52.3759 16.1084 52.3239 16.1592C52.637 16.2432 52.7264 16.1592 53.0283 16.5055C52.6593 16.5055 53.0283 16.6944 52.6817 16.5055C52.9836 16.7678 52.9836 16.9777 53.509 16.9042C53.2407 17.0826 53.6208 17.324 53.8333 17.3345L53.632 16.8413C53.8227 16.893 54.0011 16.9785 54.1575 17.0931L53.9115 17.3659C54.4817 18.1215 55.5886 17.261 55.8793 18.1529C56.17 18.006 55.5215 17.8381 55.8234 17.6388C56.1476 17.8276 56.3377 18.4048 56.4495 18.4467C56.8743 18.793 57.0867 18.1215 57.5675 18.4467C57.5554 18.3868 57.558 18.325 57.5754 18.2662C57.5927 18.2073 57.6241 18.153 57.6673 18.1074C57.7106 18.0618 57.7643 18.0261 57.8246 18.003C57.8848 17.98 57.9498 17.9703 58.0147 17.9746C58.3501 18.1215 58.283 18.5937 58.0147 18.6251C57.7464 18.6566 57.9029 18.5622 57.9141 18.5202C57.9253 18.4782 57.6122 18.5202 57.7128 18.7091L57.8023 18.6041C57.9364 18.772 58.4396 18.9084 58.2607 19.0658C58.5737 19.0658 58.4396 18.9084 58.2607 18.7825C58.6743 19.0868 58.9874 19.0029 59.4346 19.2337C59.3675 19.1498 59.3452 18.9924 59.4346 19.0134C60.0942 19.3282 59.8036 18.856 60.2955 18.9189C60.5079 19.1708 60.0831 19.3387 60.5974 19.2967C60.8657 19.4856 60.5974 19.6325 60.4408 19.7059C60.944 19.559 61.2235 20.0312 61.4694 20.1257L61.2123 20.1781C61.3411 20.151 61.4748 20.151 61.6036 20.1781L61.5253 19.9368C61.6483 20.0102 61.7713 20.0312 61.7489 20.1361C61.9166 20.0102 61.7489 19.7059 62.0508 19.5485C62.2073 19.7059 62.6322 19.5485 62.6322 19.8528C62.0843 19.643 62.6322 20.1886 62.1291 20.1571C62.2489 20.14 62.3713 20.1622 62.4757 20.2201C62.4757 20.2201 62.4757 20.2831 62.3974 20.2935C62.8893 20.6923 62.7328 19.9788 63.2918 20.0837C63.1912 20.2621 63.3589 20.4614 63.4595 20.4405C63.2359 20.388 63.4595 20.1152 63.6496 20.0102C63.985 20.2096 64.0633 20.0102 64.2533 20.0102L64.0521 19.9053C64.1527 19.7374 64.3316 19.7899 64.5999 19.7689C64.5999 19.9158 64.3428 19.8318 64.4322 19.9158C64.7676 19.6325 65.0024 20.346 65.4384 20.1886C65.595 20.3355 65.4384 20.5349 65.5502 20.6398C66.031 20.4614 65.9863 20.9546 66.4782 20.8287C66.3888 20.5559 66.3552 20.6188 66.713 20.4195L65.9304 20.4929L66.467 20.1991C66.2434 20.1991 65.9639 20.2831 65.8297 20.1991C66.0981 20.0312 66.0645 20.0942 65.9863 19.8738C66.2434 20.2831 66.6347 19.7479 66.959 20.0417L66.8583 20.6503C67.3726 20.9966 67.8757 20.4614 68.5689 20.7028L68.3565 20.5664C68.4795 20.3355 68.7925 20.5664 69.0385 20.5664C69.0385 20.7657 69.1279 20.8602 69.2062 20.9966C69.2062 20.8602 69.6199 20.9966 69.7876 20.7762L69.9106 19.0868C69.9043 19.1251 69.9043 19.164 69.9106 19.2023L69.5528 18.8875C68.9826 18.772 68.8932 19.4646 68.3453 19.3911C68.513 19.1708 68.2559 19.0239 68.636 18.8665C68.4459 18.8665 68.2782 18.814 68.2782 18.9609C68.1664 18.835 67.7639 19.2337 67.5962 19.0344C67.518 19.1288 67.4844 19.3387 67.2832 19.3282C67.2712 19.2941 67.2712 19.2573 67.2832 19.2232C67.2832 19.3282 66.959 19.3597 67.1378 19.5905C66.5788 18.9399 65.5502 19.5905 65.0583 19.0554C64.6443 19.1249 64.2261 19.1704 63.8061 19.1918C63.8061 19.1288 63.8061 19.0868 63.8844 19.1183C63.3813 18.9189 63.5601 19.7059 62.9899 19.4856C62.7104 19.1498 63.303 19.3072 63.1241 19.1813C63.0458 18.4992 62.4309 19.2652 62.0061 18.856H62.0955C61.8048 18.6146 61.3688 19.1078 60.8881 19.0449C60.8951 19.03 60.8988 19.0139 60.8988 18.9976C60.8988 18.9814 60.8951 18.9653 60.8881 18.9504C60.4764 19.2552 59.9792 19.4411 59.457 19.4856C59.6135 19.2232 59.6694 19.3492 59.5911 19.0763C59.3787 19.0763 59.5911 19.517 59.2334 19.5905C59.0992 19.4436 58.7973 19.3072 58.7638 19.0239H59.1551C58.9539 18.6566 58.652 19.0239 58.4396 18.9714V18.8035C57.8358 18.856 57.8246 19.2652 57.1762 19.2232L57.2433 19.3492C56.8855 19.7584 56.9526 19.1183 56.5948 19.4226L56.4942 19.0029C56.1015 19.1945 55.6895 19.3491 55.2644 19.4646C55.563 19.1971 55.9117 18.9837 56.2929 18.835C56.0693 18.835 55.5103 18.835 55.3873 19.0554C55.488 19.0554 55.5998 18.9189 55.6892 18.9819C55.5569 19.139 55.3862 19.2639 55.1916 19.3461C54.997 19.4282 54.7842 19.4653 54.5712 19.4541C54.6606 18.6461 53.3749 19.2337 53.0507 18.6041C52.2457 18.898 51.4519 18.4677 50.5015 18.4992C50.8258 19.1288 50.222 18.4992 50.2779 19.1603C50.0543 19.1603 49.9761 19.1603 49.9537 19.1603L49.2941 18.772C49.1375 18.5832 49.4953 18.6356 49.4841 18.4887C49.0034 18.4363 49.2829 18.2159 48.9698 18.0375C49.0257 18.2684 48.791 18.3733 48.5226 18.2789L48.9028 18.5832C48.2208 18.9084 48.3326 18.0375 47.6394 18.3628L47.863 18.1634C47.5164 18.2789 46.5773 18.1634 46.2307 18.6566C46.1636 18.5832 46.0853 18.4048 46.2307 18.3628C45.4033 18.2789 44.3747 18.8875 43.7263 18.5622L43.7934 18.4153C43.6368 18.4153 43.5139 18.6986 43.3238 18.5412C43.3238 18.4782 43.3909 18.3838 43.3238 18.3733C43.2567 18.3628 42.8989 18.6461 42.6977 18.5517L42.8766 18.3733C42.0604 18.1634 41.6244 18.793 40.9424 18.898C40.9424 18.4363 40.3163 18.2789 39.9921 18.1949V18.132C39.1374 18.1939 38.2972 18.3742 37.4988 18.6671C36.9622 18.1634 35.6653 18.4363 34.7932 18.1529C34.9274 18.2369 34.7932 18.5097 34.6143 18.5517C34.4354 18.5937 34.0441 18.8665 34.0777 18.4467H34.1559C33.9994 18.027 33.5746 18.132 33.2503 18.1215L33.1944 18.6671C32.3335 17.8591 30.9584 18.9399 30.4664 18.2159C30.2652 18.3523 30.008 18.3418 29.7956 18.4782V18.1844C29.2805 18.0872 28.7524 18.066 28.2304 18.1215L28.3757 17.9116C27.9732 17.9116 27.8614 18.7615 27.4813 18.7825L27.3807 18.3313C26.6763 18.3313 25.9719 17.9326 25.2788 18.3313C25.2788 18.2684 25.2788 18.1424 25.4241 18.1215C25.0999 18.1215 24.1607 17.8067 24.3061 18.4153C24.3061 18.0165 23.5794 18.4153 23.1881 18.5412L23.2551 18.2474C22.9309 18.6251 22.9197 18.7196 22.4725 18.8245C22.3607 18.8245 22.3831 18.5832 22.4725 18.6671C22.1259 18.5097 22.193 18.9399 21.7682 18.772L21.9359 18.5936C21.5669 18.5936 21.6005 18.6671 21.3992 18.877C21.3265 18.9 21.2497 18.9092 21.1733 18.9043C21.0968 18.8993 21.0221 18.8801 20.9535 18.848C20.8849 18.8158 20.8238 18.7712 20.7736 18.7167C20.7235 18.6623 20.6853 18.599 20.6613 18.5307C20.6054 18.6986 20.4042 18.9084 20.1917 18.8245C20.1868 18.7884 20.1926 18.7516 20.2083 18.7183C20.2241 18.685 20.2493 18.6564 20.2812 18.6356C19.6886 18.4363 19.3867 18.9714 18.9731 18.6356C18.9732 18.5707 18.9495 18.5077 18.906 18.4572C19.183 18.4473 19.4603 18.4649 19.7333 18.5097C19.7333 18.2474 19.3532 18.1949 19.6663 17.8276C19.342 18.027 18.8054 18.4572 18.4364 18.3313C18.4306 18.3001 18.4306 18.2681 18.4364 18.2369C18.3981 18.2193 18.3561 18.2101 18.3134 18.2101C18.2708 18.2101 18.2287 18.2193 18.1905 18.2369C18.0956 18.1839 17.9877 18.155 17.8774 18.1529C17.8774 17.9221 17.4414 18.027 17.2401 18.0165C17.2401 18.3103 17.0053 18.2579 17.2401 18.4992C17.2401 18.4992 17.2401 18.4992 17.4078 18.4992C17.5755 18.4992 17.4078 18.4992 17.4861 18.4992H17.9669C17.8103 18.6461 17.6538 18.772 17.4414 18.6041C17.3595 18.7672 17.2661 18.9249 17.1619 19.0763C16.9047 18.6671 16.3904 18.4363 16.3233 18.1844C15.7308 18.3418 14.9258 18.2789 14.5457 18.8245C14.378 18.898 14.3556 18.6671 14.2997 18.5832C14.2438 18.4992 14.5121 18.5307 14.568 18.4572C14.2214 18.5937 13.573 18.4572 13.45 18.8875C13.0252 18.7091 13.696 18.5307 13.1034 18.5936L13.3829 18.3628C12.2649 17.7332 11.5046 19.3387 10.2413 18.5307C10.3307 18.5307 10.3754 18.6041 10.3866 18.6671C8.94434 18.2998 7.40146 18.9609 5.98156 18.3943C5.57907 18.2789 5.53435 18.5202 5.2772 18.7091L5.19894 18.3838L4.76291 18.751C4.14799 19.0134 3.76786 17.9536 2.94052 18.4572L3.0635 18.6776C2.71691 18.6146 2.102 18.9189 2.09082 18.6776C2.09082 18.6776 2.09082 18.9084 1.90075 18.8455L1.84485 18.6881C1.61926 18.8526 1.41645 19.043 1.24111 19.2547C1.1579 19.3014 1.05849 19.3154 0.964349 19.2938C0.870208 19.2722 0.788901 19.2167 0.737998 19.1393C0.637375 19.0344 0.413769 18.9399 0.0559995 19.4121C0.0097647 19.5389 -0.00814018 19.6733 0.00340112 19.8069C0.0149424 19.9405 0.0556825 20.0704 0.123081 20.1886C0.268425 20.4195 0.458491 20.5559 0.503212 20.5139C0.547933 20.4719 0.503212 20.2306 0.726818 20.2935C0.763352 20.3917 0.816179 20.4837 0.883342 20.5664C1.09848 20.6459 1.3188 20.7125 1.54298 20.7657C1.70617 20.7871 1.87173 20.7871 2.03491 20.7657C1.93918 20.688 1.86931 20.586 1.83367 20.4719C1.90992 20.5052 1.98131 20.5475 2.04609 20.5978V20.6923C2.25852 20.7657 2.11318 20.6398 2.04609 20.5244C2.10677 20.5899 2.17418 20.6497 2.24734 20.7028C2.20377 20.5374 2.20377 20.3645 2.24734 20.1991C2.34796 20.367 2.31442 20.5874 2.49331 20.6293C2.49331 20.3775 2.20262 20.2726 2.37032 20.0627C2.59393 20.2306 2.58275 20.4195 2.70573 20.1991C2.72826 20.2396 2.74003 20.2846 2.74003 20.3303C2.74003 20.3759 2.72826 20.4209 2.70573 20.4614C2.80635 20.2831 3.04114 20.346 3.08586 20.0837C3.23121 20.3565 3.81258 20.0207 3.76786 20.4824C3.91589 20.2989 4.1241 20.1662 4.36042 20.1047C3.99147 20.6608 5.12068 20.1047 5.02006 20.7448C5.29956 20.2411 6.0151 20.5349 6.49586 20.2621C6.49586 20.2621 6.41759 20.3775 6.37287 20.3565C6.65238 20.3565 6.71946 20.5454 6.89835 20.6398C6.89835 20.2306 7.36792 20.1466 7.60271 19.8948C7.92694 20.2935 7.39028 20.367 7.4909 20.7552C7.4909 20.4195 8.07228 20.43 7.96048 20.1466C8.21762 20.3985 8.18408 20.2726 8.30707 20.6083C8.30707 20.0942 8.55303 20.5244 8.76546 20.2201C9.13441 20.4719 8.8549 20.7028 9.26857 20.5454C9.32447 20.6923 8.9108 20.8707 8.9108 20.8707ZM19.4203 20.0942C19.3051 20.0829 19.1889 20.0829 19.0737 20.0942C19.0737 19.9892 19.0737 19.8843 19.1631 19.8843C19.2526 19.8843 19.3532 20.0102 19.465 20.0942H19.4203ZM17.7321 17.9955C17.855 17.9955 17.8998 17.9955 17.9221 18.0795H17.6873C17.7156 18.0597 17.7455 18.0422 17.7768 18.027L17.7321 17.9955Z" fill="#547050" fill-opacity="0.2"/>
<path d="M17.5413 18.416H17.4854C17.5024 18.4453 17.5302 18.4677 17.5636 18.479V18.395L17.5413 18.416Z" fill="#547050" fill-opacity="0.2"/>
<path d="M49.5836 13.9455C49.5793 13.9283 49.5793 13.9103 49.5836 13.8931C49.5776 13.9101 49.5776 13.9285 49.5836 13.9455Z" fill="#547050" fill-opacity="0.2"/>
<path d="M30.7009 20.7766V20.7031L30.6338 20.7766H30.7009Z" fill="#547050" fill-opacity="0.2"/>
<path d="M47.4943 10.1259C47.5056 10.0989 47.5056 10.069 47.4943 10.042C47.4889 10.0697 47.4889 10.0982 47.4943 10.1259Z" fill="#547050" fill-opacity="0.2"/>
<path d="M46.6217 8.56213V8.2998C46.6092 8.38685 46.6092 8.47509 46.6217 8.56213Z" fill="#547050" fill-opacity="0.2"/>
<path d="M64.5107 18.0062H64.5666C64.7008 17.9642 64.6114 17.9747 64.5107 18.0062Z" fill="#547050" fill-opacity="0.2"/>
<path d="M57.6123 17.1353L57.8694 17.0723C57.7688 17.0199 57.6794 16.9779 57.6123 17.1353Z" fill="#547050" fill-opacity="0.2"/>
<path d="M58.1822 17.1769C58.1414 17.1389 58.0922 17.1098 58.0381 17.0917C57.984 17.0736 57.9263 17.0668 57.8691 17.072C57.959 17.1372 58.0686 17.1739 58.1822 17.1769Z" fill="#547050" fill-opacity="0.2"/>
<path d="M44.3528 1.60544V1.54248H44.2969L44.3528 1.60544Z" fill="#547050" fill-opacity="0.2"/>
<path d="M44.2962 1.54196V1.479C44.2962 1.479 44.2626 1.54196 44.2962 1.54196Z" fill="#547050" fill-opacity="0.2"/>
<path d="M44.1172 1.34326L44.2402 1.47967C44.2406 1.44685 44.2284 1.41499 44.2058 1.38994C44.1832 1.36488 44.1517 1.34831 44.1172 1.34326Z" fill="#547050" fill-opacity="0.2"/>
<path d="M44.6875 3.41148H44.7993C44.7818 3.40321 44.7627 3.39893 44.7434 3.39893C44.7241 3.39893 44.705 3.40321 44.6875 3.41148Z" fill="#547050" fill-opacity="0.2"/>
<path d="M44.9107 3.92431C44.9107 3.79839 45.0449 3.54656 44.9107 3.38916H44.8213C45.0225 3.43113 44.6871 3.86135 44.9107 3.92431Z" fill="#547050" fill-opacity="0.2"/>
<path d="M44.3641 6.56862L44.2746 6.08594C44.1964 6.20136 44.0734 6.35876 43.9728 6.15939C43.8498 6.85194 44.1852 5.96002 44.3641 6.56862Z" fill="#547050" fill-opacity="0.2"/>
<path d="M44.8002 8.01728C44.6325 7.79692 44.6325 8.08024 44.5654 8.09073C44.7443 8.20615 44.789 8.22714 44.8002 8.01728Z" fill="#547050" fill-opacity="0.2"/>
<path d="M52.3572 16.1279L52.1895 16.3483C52.4019 16.4112 52.2454 16.2538 52.3572 16.1279Z" fill="#547050" fill-opacity="0.2"/>
<path d="M54.9513 15.8446L54.8507 15.6138L54.6494 15.7922L54.9513 15.8446Z" fill="#547050" fill-opacity="0.2"/>
<path d="M55.3091 18.0796H55.1973L55.5774 18.1216L55.3091 18.0796Z" fill="#547050" fill-opacity="0.2"/>
<path d="M65.5049 18.7088L65.5608 19.0446C65.7061 18.9816 65.7397 18.6144 65.5049 18.7088Z" fill="#547050" fill-opacity="0.2"/>
<path d="M57.3441 18.9614C57.2547 18.7935 57.0311 18.6886 56.8857 18.846C57.0758 18.8879 57.2547 19.0034 57.3441 18.9614Z" fill="#547050" fill-opacity="0.2"/>
<path d="M32.8924 18.1533L33.0601 18.0483L32.7471 18.1323L32.8924 18.1533Z" fill="#547050" fill-opacity="0.2"/>
<path d="M45.727 40.0002C45.8277 40.0002 46.0289 39.8952 45.973 39.8638L45.6152 39.9582L45.727 40.0002Z" fill="#547050" fill-opacity="0.2"/>
<path d="M46.2527 39.4438C45.9697 39.4445 45.6907 39.5055 45.4365 39.6222C45.7943 39.6222 45.6601 39.6222 46.0738 39.5593C46.1409 39.5593 45.9955 39.6747 45.8726 39.7167C45.962 39.7167 45.8167 39.8216 46.0403 39.7167C46.2639 39.6117 46.275 39.4753 46.0403 39.4648C46.1102 39.4515 46.1813 39.4445 46.2527 39.4438Z" fill="#547050" fill-opacity="0.2"/>
<path d="M47.293 32.0249C47.293 32.0249 47.293 32.0774 47.3489 32.0879C47.4048 32.0984 47.3265 32.0354 47.293 32.0249Z" fill="#547050" fill-opacity="0.2"/>
<path d="M46.3193 34.7323L46.4423 34.6694C46.3305 34.6274 46.3417 34.7008 46.3193 34.7323Z" fill="#547050" fill-opacity="0.2"/>
<path d="M46.622 36.927C46.4735 36.9084 46.3233 36.9084 46.1748 36.927C46.2488 36.9139 46.3244 36.9139 46.3984 36.927H46.622Z" fill="#547050" fill-opacity="0.2"/>
<path d="M46.6328 35.3314H46.7446C46.7082 35.3199 46.6692 35.3199 46.6328 35.3314Z" fill="#547050" fill-opacity="0.2"/>
<path d="M69.5751 20.0425L69.5527 20.0635L69.5751 20.2209V20.0425Z" fill="#547050" fill-opacity="0.2"/>
<path d="M54.1132 25.3201C53.8784 25.1417 54.1132 24.9528 53.7666 24.7744C53.8449 24.8689 53.9119 25.1836 54.1132 25.3201Z" fill="#547050" fill-opacity="0.2"/>
<path d="M49.6855 28.4785C49.6855 28.4785 49.7526 28.4785 49.7414 28.4785C49.7414 28.4785 49.7303 28.49 49.6855 28.4785Z" fill="#547050" fill-opacity="0.2"/>
<path d="M65.3262 19.2651C65.3626 19.3505 65.3925 19.4381 65.4156 19.5275C65.3709 19.3176 65.4939 19.2232 65.3262 19.2651Z" fill="#547050" fill-opacity="0.2"/>
<path d="M47.7617 27.0095L47.8959 26.915C47.8442 26.9368 47.7984 26.969 47.7617 27.0095Z" fill="#547050" fill-opacity="0.2"/>
<path d="M48.1758 26.5479C48.245 26.5848 48.3207 26.6097 48.3994 26.6213C48.4046 26.6006 48.4046 26.579 48.3994 26.5583L48.1758 26.5479Z" fill="#547050" fill-opacity="0.2"/>
<path d="M66.2764 18.6882C66.131 18.6882 66.2764 19.0765 66.2764 19.2968C66.2764 19.5172 66.1534 19.024 66.0639 18.8456C65.9745 18.9611 65.9521 19.3178 65.8739 19.3178C65.8612 19.2625 65.8612 19.2053 65.8739 19.1499C65.818 19.4752 65.5497 19.2129 65.4826 19.6221V19.5277C65.5317 19.7002 65.569 19.8754 65.5944 20.0523C65.5944 20.0523 65.5273 20.3042 65.4602 20.0523C65.4602 20.0523 65.4602 19.9474 65.4602 19.874V19.9894C65.3372 19.6431 65.5273 19.853 65.4602 19.5801C65.3484 19.7166 65.259 20.0418 65.136 19.9579C65.0577 19.6116 65.3484 19.8005 65.136 19.5067L65.3149 19.6221C65.1024 19.087 65.4155 19.6221 65.2031 19.066C64.9795 18.9925 65.013 19.2758 64.7894 19.2129C64.7894 19.4123 64.8565 19.4962 64.8453 19.6956C64.6329 20.0943 64.4652 18.8561 64.3422 19.3598C64.3422 19.6011 64.3981 20.0523 64.1968 19.8425V19.4332C63.9956 19.4332 64.1968 20.0209 63.9397 19.79C63.9397 19.6326 64.0627 19.6326 64.0291 19.5906C63.8391 19.2968 64.0291 19.832 63.8838 19.8425L63.6937 19.5067C63.5037 19.6011 63.3248 19.9054 63.1123 20.0104C63.1237 19.8981 63.1004 19.7852 63.0453 19.6851C62.7881 19.9159 62.4192 19.7585 62.0838 19.6116V19.9369C62.0838 19.9369 62.0055 19.811 62.0167 19.748C62.0279 19.6851 62.0167 19.9369 62.0167 20.0733C62.0167 20.2097 61.8937 19.9159 61.9049 19.811C61.7707 20.1153 61.5024 20.4721 61.2117 20.2097V20.1048C61.0216 20.0209 61.2117 20.7659 60.9769 20.514V20.4616C60.608 20.4091 60.3173 20.7659 59.926 20.3881C60.0042 20.8288 59.5346 20.2937 59.6912 20.8918C59.4117 20.6505 59.434 20.535 59.0986 20.4091C59.0092 20.4091 59.0986 20.8079 59.0986 20.8918L58.9868 20.5875V20.9862L58.7967 20.64L58.7408 20.7449C58.8163 20.7947 58.8684 20.8698 58.8862 20.9548C58.8079 21.1331 58.4949 20.8288 58.439 20.6819L58.2154 21.0282C58.1921 20.9386 58.1921 20.845 58.2154 20.7554C58.1595 21.1226 58.07 20.4406 58.0253 20.7554C58.0646 20.8278 58.0911 20.9058 58.1036 20.9862C58.0813 20.9537 58.0507 20.927 58.0145 20.9085C57.9784 20.89 57.9379 20.8803 57.8967 20.8803C57.8556 20.8803 57.8151 20.89 57.7789 20.9085C57.7428 20.927 57.7122 20.9537 57.6899 20.9862V20.7659C57.4328 20.7659 57.2427 21.0387 56.9855 21.1226C57.1085 21.1856 57.2427 21.5529 57.1756 21.6158L57.0191 21.301C57.0191 21.5214 57.1421 21.3955 57.1421 21.6788C57.0414 21.6788 56.9296 21.3325 56.9408 21.2066L56.8737 21.364C56.8397 21.2752 56.8135 21.184 56.7955 21.0912C56.7955 21.301 56.4601 20.8498 56.5271 21.2171V21.1226C56.27 21.2171 56.2029 21.3745 56.0017 21.4689C56.1247 21.7417 56.0017 21.7103 56.0017 21.9516C55.8116 21.9516 55.5433 21.7942 55.3756 21.8886C55.2079 21.9831 55.4538 22.1405 55.4762 22.3189C55.342 22.0775 55.1743 22.1825 55.1855 21.9621C54.9885 22.074 54.8415 22.2493 54.7718 22.4553C54.8501 22.5392 54.906 22.5602 54.9284 22.6547C54.9507 22.7491 54.7718 22.6022 54.7159 22.4868C54.6153 22.9904 53.5979 22.13 53.6762 22.7491L53.5867 23.1373C53.4526 23.1373 53.5867 22.9275 53.3743 22.8225C53.3743 23.3577 52.9271 23.0009 52.8824 23.3682C52.2563 22.7911 52.3345 23.7669 51.7643 23.4836L51.8873 23.6305C51.9432 23.8194 51.7532 23.6305 51.6861 23.6305C51.7867 23.7459 51.8538 23.725 51.8761 23.8299C51.5407 24.3126 50.7581 24.2706 50.1432 24.5119C49.9419 24.6064 50.7246 25.3199 50.1432 25.152L49.9643 24.8477C49.9643 25.4249 49.2711 25.4039 49.2376 25.9495C49.2376 25.8761 49.1146 25.8026 49.1481 25.7711C48.891 25.6557 48.9022 25.9915 49.0587 26.1384C48.9916 26.1384 48.9022 26.023 48.7904 25.9705C48.6786 25.918 48.8798 26.3482 48.6562 26.2118C48.6562 26.2118 48.6562 26.1384 48.6003 26.1174C48.5444 26.0964 48.3991 26.2853 48.6562 26.4427C48.4438 26.4427 48.5668 26.747 48.3432 26.726C48.5556 26.9988 48.0301 26.8204 48.3432 27.1352C47.963 26.8204 47.8512 27.1352 47.9742 27.3031C47.8736 27.1877 47.7953 27.3031 47.65 27.1247C47.5829 27.2192 47.5941 27.3556 47.8177 27.492C47.2028 27.3031 47.9519 28.0796 47.2475 27.7438C47.2626 28.0948 47.2401 28.4464 47.1804 28.7932C46.7556 28.5308 47.3146 28.4994 46.8674 28.237C46.8674 28.5833 47.158 28.9296 46.8674 29.0975C46.5767 29.2654 46.6997 28.9611 46.6438 28.8876C46.6438 29.2234 46.3083 29.3283 46.4201 29.6746C46.3786 29.6455 46.3474 29.6052 46.3307 29.5592C46.3307 29.6116 46.2077 29.6326 46.409 29.7271V29.6536C46.7444 29.748 46.9233 30.1363 47.0798 30.2202C46.5431 29.8635 46.8115 30.3566 46.1406 29.874C46.1935 29.9644 46.2817 30.0321 46.3866 30.0628C46.3195 30.0628 46.2301 30.0628 46.0959 29.9474C46.0959 30.1468 46.3754 30.1992 46.286 30.3357C46.2061 30.2862 46.1313 30.23 46.0624 30.1678C46.2077 30.3357 46.3754 30.4931 46.2301 30.577C46.0847 30.6609 46.0847 30.514 46.1071 30.4826C46.04 30.7029 46.4649 31.0597 46.1071 31.1961C45.7046 30.9443 45.9282 31.1961 45.5369 31.0702L45.5928 31.2381H45.8052C45.8052 31.343 45.9841 31.5424 45.8052 31.5843V31.364V31.5948L45.9953 31.5319C46.1518 31.7208 46.4984 31.6998 46.3307 31.8047C46.163 31.9096 46.3307 31.9096 46.0288 31.8782C46.1406 31.9726 46.2524 32.0775 46.1183 32.1195C45.9841 32.1615 45.6934 31.9621 45.604 31.9411C45.9059 32.109 45.604 32.2244 45.9282 32.4028C45.8243 32.3465 45.7109 32.3074 45.5928 32.2874L45.85 32.4133C45.7487 32.4469 45.6382 32.4469 45.5369 32.4133C45.4363 32.5497 46.0512 32.5182 45.7829 32.6337C45.75 32.6127 45.72 32.588 45.6934 32.5602C45.5257 32.7176 45.7605 32.959 45.5816 33.0954C45.1568 33.0429 45.5257 32.917 45.168 32.8855C45.168 33.1583 45.4922 33.5151 45.358 33.725C45.9282 33.8719 45.0338 33.8509 45.2798 34.0188C45.2021 33.983 45.1192 33.9582 45.0338 33.9453C44.8996 34.0922 45.1009 34.3126 45.2462 34.5854H45.1009C44.9332 34.6588 44.9891 34.8372 44.9108 34.9317C45.0562 34.9317 45.0226 35.0366 45.2462 35.0261C44.363 35.2884 45.6375 35.6662 44.922 35.918C44.922 35.918 44.7878 35.8341 44.7878 35.918L44.922 36.1699C45.1791 36.1699 45.0785 36.1699 45.2798 36.0859C45.481 36.002 45.5593 36.1909 45.5593 36.2538C45.3804 36.1384 45.1456 36.2538 45.0002 36.2538C45.0821 36.2486 45.1643 36.2486 45.2462 36.2538C44.7878 36.3797 45.7605 36.2538 45.4586 36.4427H45.3245C45.3916 36.5056 45.5704 36.5686 45.5257 36.6316C45.235 36.6316 45.3916 36.5686 45.1456 36.5686C45.1456 36.6735 45.7158 36.747 45.4139 36.8414C45.3357 36.8414 45.3245 36.747 45.2462 36.705C44.8996 36.8204 44.9779 36.8309 44.9332 36.9044L44.7878 37.0828L44.8773 37.0303C45.6711 37.1038 45.0561 37.2821 45.5816 37.3976C45.0785 37.2821 45.3021 37.3976 44.9555 37.3976C44.8773 37.3976 44.7766 37.534 44.676 37.5235C44.9555 37.576 44.486 37.6809 44.8884 37.7543C44.7878 37.7543 44.8884 37.8383 44.6201 37.8593C44.7096 37.9537 44.799 37.8593 44.9332 37.7963C45.3133 37.9012 44.5642 38.258 45.1232 38.3944C45.3692 38.5518 45.7382 38.5098 45.9506 38.6463C45.8241 38.6887 45.6858 38.6887 45.5593 38.6463C45.4251 38.7722 45.4698 38.8456 45.5593 38.9086C45.4588 38.9163 45.3624 38.9489 45.2798 39.003C45.2798 39.0765 45.6822 38.9506 45.5593 39.087C45.4107 39.1025 45.2607 39.1025 45.1121 39.087C45.235 39.1499 45.4586 39.1814 45.5928 39.2444C45.4537 39.2801 45.307 39.2801 45.168 39.2444C45.2364 39.3136 45.3231 39.3647 45.4193 39.3923C45.5155 39.42 45.6178 39.4232 45.7158 39.4018L45.7941 39.3073C45.7941 39.3073 45.5593 39.4018 45.4922 39.3913C45.2462 39.3913 45.5481 39.2339 45.6599 39.2024H45.7381C46.3307 38.9611 45.5593 38.9925 45.5481 38.8456L46.0177 38.7827L45.8052 38.8246C45.917 38.7722 46.163 38.6882 46.2413 38.7302C46.4425 38.5938 46.0624 38.7302 46.2413 38.5623C46.2667 38.5543 46.2941 38.5543 46.3195 38.5623H46.163C46.2636 38.5623 46.476 38.4784 46.4201 38.5623C46.6549 38.3524 46.0288 38.3944 46.4201 38.2685C46.2189 38.0901 46.0847 38.2685 45.6599 38.2685L46.4537 38.0062H46.1183C46.1183 38.0062 46.1183 37.9327 46.2748 37.9222C46.0288 37.9222 46.1295 37.9222 45.9059 37.9222C46.1742 37.7753 45.7158 37.6494 46.2524 37.555C45.9953 37.555 46.0624 37.6809 45.8723 37.555C46.4537 37.45 45.7605 37.4395 46.0177 37.3031C46.2748 37.1667 46.163 37.4081 46.4201 37.3031C45.9059 37.3031 46.5096 37.1143 46.4201 37.0408C46.0177 37.0408 46.2301 36.8834 46.0847 36.7575C46.2189 36.7575 46.3083 36.4952 46.4537 36.3692H46.5208C46.1071 36.3692 46.1854 36.2223 46.0959 36.1279C46.2529 36.1145 46.4109 36.1398 46.5543 36.2013V36.1069C46.4572 36.1051 46.3648 36.0674 46.2972 36.002H46.6102C46.6102 35.8866 46.2413 35.7501 46.4649 35.6137C46.1742 35.6137 45.6599 35.6977 45.481 35.5193C45.6433 35.51 45.8061 35.5277 45.9618 35.5718C45.9618 35.5718 45.8388 35.5193 45.9618 35.4983L46.2189 35.5718C46.3307 35.5088 46.0065 35.5193 46.0288 35.4668C46.2524 35.4668 46.1965 35.4668 46.3642 35.4668C46.532 35.4668 46.2748 35.4668 46.3642 35.5403C46.4601 35.4529 46.5884 35.404 46.722 35.4039C46.5879 35.4039 46.4201 35.4039 46.3978 35.3304C46.3754 35.257 46.6661 35.3304 46.7891 35.257C46.6326 35.257 46.7891 35.152 46.476 35.1206C46.476 35.1206 46.6326 35.1206 46.722 35.1206C46.5879 35.0471 46.722 34.8372 46.3531 34.8687C46.0512 34.6169 46.6102 34.4805 46.5096 34.2601H46.6102C46.5096 34.1237 46.6102 33.9873 46.3754 33.8509C46.3754 33.8509 46.5879 33.8509 46.7108 33.8509C46.6549 33.7459 46.5431 33.7145 46.7108 33.62C46.8674 33.7564 46.8785 33.62 46.8226 33.7459C46.9456 33.6515 47.1245 33.6725 46.8226 33.4836C47.0798 33.5885 47.1916 33.4836 47.1245 33.4102H46.9121C46.8962 33.3866 46.8877 33.3593 46.8877 33.3315C46.8877 33.3036 46.8962 33.2763 46.9121 33.2528L47.2587 33.3787C47.7506 33.2842 46.6326 32.7491 47.4264 32.8016C47.2028 32.6651 47.2028 32.8645 46.9344 32.7281C47.0239 32.6337 47.5717 32.7281 47.5829 32.6651C47.8289 32.5917 47.1245 32.3608 47.3146 32.2559C47.1804 32.2559 46.845 32.13 46.7779 31.9726C46.7108 31.8152 47.3369 32.0356 47.4152 32.1405C47.4935 32.2454 47.4152 32.1405 47.3258 32.1405C47.3482 32.1771 47.3809 32.2072 47.4204 32.2275C47.4598 32.2479 47.5044 32.2577 47.5494 32.2559L47.4264 32.2034C47.5717 32.2034 47.6164 32.0565 47.8065 32.2034C47.795 32.1799 47.7782 32.1589 47.7572 32.1421C47.7362 32.1252 47.7115 32.1129 47.6849 32.1059C47.6583 32.0989 47.6304 32.0974 47.6031 32.1016C47.5758 32.1057 47.5499 32.1154 47.527 32.13C47.7506 32.067 47.6276 31.9306 47.8065 31.8467C47.7282 31.8467 47.5717 31.7942 47.5829 31.7732C47.8289 31.6473 47.3928 31.5948 47.4152 31.4374C47.6276 31.4374 47.84 31.6578 47.7506 31.4374C47.9071 31.4374 48.0748 31.5634 48.1531 31.6368C47.9854 31.4165 48.4102 31.4794 48.4885 31.4374L48.5556 31.5424C48.5426 31.5236 48.5357 31.5018 48.5357 31.4794C48.5357 31.4571 48.5426 31.4352 48.5556 31.4165L48.2984 31.343C48.3655 31.343 48.3767 31.343 48.4773 31.343C48.3432 31.2381 48.0637 31.1856 47.8959 31.0177C48.0413 31.0177 47.8959 30.8079 48.1755 30.9443C47.9742 31.0387 48.4885 31.0807 48.4773 31.2276C48.4773 31.2276 48.4773 31.1541 48.5332 31.1436C48.5476 31.1477 48.5609 31.1545 48.5724 31.1635C48.584 31.1725 48.5934 31.1836 48.6003 31.1961C48.9581 31.1961 48.2873 30.9653 48.3767 30.8183C48.5444 30.9233 48.7345 30.9548 48.7121 30.9128C48.6897 30.8708 48.3991 30.7869 48.2984 30.6714C48.4885 30.6714 48.2984 30.514 48.2984 30.4721H48.209C48.0413 30.3566 48.0972 30.3252 48.0748 30.2307C48.2202 30.2937 48.1419 30.3357 48.209 30.3462C47.9519 30.1048 48.6227 30.3462 48.4773 30.1363C48.6227 30.1363 48.8016 30.3042 48.9022 30.3147C48.7568 30.0838 49.2152 30.3147 49.1146 30.1153C49.014 29.9159 48.9134 30.0523 48.7568 29.8425V30.1258L48.5109 29.811C48.5109 29.8635 48.5779 30.0104 48.5109 30.0314C48.3655 29.8635 48.4214 29.8949 48.209 29.8215C48.6003 29.9369 48.1196 29.5487 48.4102 29.5802L48.9693 29.9159C49.3047 29.9159 48.8463 29.5067 49.1146 29.4123H48.9804C48.7792 29.2444 48.9804 29.2758 48.9804 29.1709C49.1049 29.2479 49.2405 29.308 49.3829 29.3493C49.2488 29.2654 49.4947 29.2339 49.1481 28.982L49.4388 29.066C49.6401 28.9925 49.0587 28.5518 49.2264 28.4574C49.3941 28.6358 49.5618 28.6672 49.6289 28.8561C49.6289 28.8561 49.7295 28.7932 49.6289 28.7092C49.7519 28.7617 49.4947 28.4049 49.6289 28.4889C49.6289 28.4154 49.3941 28.2685 49.45 28.237C49.4827 28.2541 49.5128 28.2753 49.5395 28.3C49.45 28.237 49.5395 28.1321 49.2599 28.0377C49.9196 28.3105 49.573 27.6284 50.1208 27.8803C50.147 27.7444 50.1961 27.6134 50.2662 27.492C50.2662 27.5445 50.3444 27.5655 50.2662 27.5655C50.5345 27.5655 49.8749 27.0933 50.1767 27.1143C50.4786 27.1352 50.2438 27.3031 50.3892 27.3556C50.9258 27.8068 50.4786 27.1352 50.8587 27.3556V27.4081C51.1047 27.5025 50.8587 27.0723 50.9705 26.9988L51.0488 27.0723C50.9826 26.9691 50.9422 26.8532 50.9306 26.7332C50.919 26.6133 50.9364 26.4924 50.9817 26.3797C51.1382 26.6001 50.9817 26.5266 51.25 26.705C51.25 26.6316 50.9146 26.4007 50.9705 26.2538C51.1602 26.3344 51.3341 26.4444 51.4848 26.5791L51.3954 26.6735C51.7084 26.9044 51.5072 26.5581 51.6078 26.5686L51.7196 26.6945C51.8202 26.5371 51.5407 26.2223 51.7196 26.1174L51.619 26.0335C51.4289 25.6452 51.8426 26.1489 51.7308 25.8551L52.0327 26.1594C51.9937 25.9582 51.9937 25.752 52.0327 25.5508C52.1179 25.7776 52.1705 26.014 52.1892 26.2538C52.2468 26.2138 52.2866 26.1553 52.301 26.0895C52.3155 26.0236 52.3035 25.9551 52.2674 25.897C52.2674 25.9495 52.2674 26.0544 52.2674 26.023C52.1333 25.7082 52.1221 25.5088 52.2674 25.4248C52.7594 26.0964 52.7035 25.3724 53.1842 25.8341C53.1842 25.4563 53.6873 25.6767 53.8998 25.4773C53.4526 25.0051 53.9669 25.4144 53.5867 24.8897C53.5867 24.8162 53.6538 24.8162 53.6873 24.8897L54.0898 25.1101C54.2352 25.2465 54.0898 25.2675 54.1905 25.3829C54.2911 25.4983 54.3917 25.5822 54.5706 25.6872C54.4364 25.4983 54.4364 25.3724 54.5706 25.4144L54.3023 25.215C54.3023 24.8162 54.7607 25.5927 54.7607 25.215V25.4248C54.7607 25.2675 55.1072 25.236 54.9507 24.7428C54.9507 24.7953 55.1184 24.9422 55.0961 25.0051C55.3644 25.0051 55.3532 24.2601 55.6886 24.449L55.7445 24.6064C55.7445 24.5434 55.6774 24.3021 55.8116 24.4175C55.9458 24.5329 55.8675 24.5644 55.8899 24.5644C55.9122 24.5644 55.8899 24.2706 55.9905 24.3231V24.5015C56.3147 24.5854 56.1582 23.9558 56.3147 23.7669C56.516 24.1971 56.7619 24.2496 56.8961 24.2811V24.3441C57.198 24.2916 57.2091 23.8089 57.3992 23.5361C57.757 23.9348 58.0365 23.5361 58.4054 23.704C58.3285 23.5843 58.297 23.4438 58.316 23.3052C58.4054 23.3787 58.3719 22.9485 58.5172 23.3052C58.7185 23.683 58.7967 23.5361 58.9086 23.5151L58.7297 22.9904C59.2663 23.6725 59.3334 22.4868 59.7135 23.1373C59.7135 22.9799 59.8142 22.9694 59.8365 22.812L59.926 23.0954C60.0109 23.1199 60.1008 23.1251 60.1883 23.1105C60.2758 23.0959 60.3584 23.0619 60.4291 23.0114V23.0849C60.5632 23.0849 60.3396 22.2244 60.4291 22.172L60.5856 22.5917C60.798 22.5182 61.1334 22.854 61.2452 22.4133C61.2452 22.4763 61.2452 22.6022 61.2452 22.6232C61.2452 22.6442 61.7148 22.8225 61.5247 22.2349C61.6254 22.6232 61.7595 22.2349 61.849 22.0251V22.3084C61.849 21.9306 61.849 21.8257 61.9608 21.6998C62.0726 21.5739 62.0502 21.9201 61.9608 21.8572C62.1173 21.9831 61.9608 21.5634 62.162 21.6893V21.8782C62.285 21.8782 62.2515 21.7837 62.2626 21.5529C62.2738 21.322 62.5086 21.5529 62.5869 21.8362C62.5869 21.6788 62.5869 21.4479 62.6651 21.5109C62.6873 21.5721 62.6873 21.6385 62.6651 21.6998C62.9111 21.8572 62.8887 21.3115 63.09 21.5739C63.0802 21.6294 63.0802 21.6862 63.09 21.7417C62.9335 21.7417 62.7993 21.7417 62.8105 21.7417C62.8664 22.0041 63.0005 22.0356 62.9894 22.4133C62.9894 22.193 63.1235 21.7313 63.2689 21.8362V21.9201C63.2689 21.9201 63.2689 21.9201 63.336 21.8677C63.403 21.8152 63.4142 21.9306 63.4478 21.9201C63.5148 22.1405 63.6155 22.0146 63.6825 22.0146C63.6155 21.7208 63.6825 21.7522 63.5819 21.5319C63.5819 21.5319 63.5819 21.5319 63.5819 21.5843L63.6937 21.7208C63.6937 21.5634 63.6937 21.4269 63.8391 21.5739C63.8391 21.385 63.8391 21.1856 63.8391 21.0912C64.018 21.4794 64.2192 21.6683 64.2975 21.9201C64.454 21.7208 64.7223 21.7313 64.7447 21.1646C64.7447 21.0912 64.8341 21.3115 64.8788 21.3955C64.9236 21.4794 64.8118 21.4479 64.8118 21.5319C64.9012 21.3745 65.1248 21.4269 65.0801 21.0387C65.259 21.1856 65.0801 21.406 65.2478 21.3115V21.4269C65.7285 21.9831 65.695 20.3776 66.2428 21.0807C66.2076 21.0459 66.1843 21.0021 66.1758 20.9548C66.7012 21.2381 67.1149 20.4931 67.6739 20.9548C67.8193 21.0492 67.7969 20.8079 67.8528 20.6085L67.9311 20.9233L68.0205 20.535C68.177 20.2517 68.4677 21.2591 68.6578 20.7344L68.5907 20.5245C68.6913 20.5245 68.8702 20.3671 68.8814 20.6085C68.8814 20.6085 68.8814 20.3881 68.8814 20.4931V20.6609L69.0715 20.3462C69.2615 20.4511 69.0714 21.0072 69.3845 21.0072C69.5037 20.821 69.5584 20.6047 69.541 20.3881C69.541 20.3881 69.4292 20.3042 69.4069 20.1363L69.4739 20.0418C69.5277 19.6035 69.4623 19.1594 69.2839 18.7512L69.1721 19.066L69.0603 18.8876H69.1833C69.0826 18.6672 69.0714 18.8876 69.0379 19.0135C69.02 18.9248 68.986 18.8396 68.9373 18.7617L68.859 19.2444C68.859 19.0555 68.859 18.8561 68.7584 18.7617C68.7584 18.982 68.8814 19.1814 68.7584 19.3388C68.6578 19.1289 68.6578 18.9401 68.6019 19.1394C68.5728 19.0541 68.5728 18.9624 68.6019 18.8771C68.6019 19.0345 68.4118 18.9611 68.4118 19.2234C68.3 18.9611 68.1658 19.3283 68.1099 18.8666C68.1069 19.0137 68.0562 19.1565 67.9646 19.2758C67.9646 18.7092 67.7075 19.2758 67.6516 18.6777C67.6516 19.1814 67.3497 18.9401 67.2267 19.2339C67.2267 19.2339 67.2267 19.1184 67.2267 19.1394C67.2267 19.1604 67.0702 18.9611 67.0031 18.8771C67.0185 19.1445 66.9767 19.4121 66.8801 19.6641C66.7124 19.2863 66.8801 19.1709 66.7795 18.8037C66.7795 19.1289 66.6341 19.1604 66.7236 19.4228C66.6238 19.2961 66.5585 19.1483 66.5335 18.9925C66.5335 19.4962 66.4553 19.087 66.4329 19.4123C66.2764 19.1709 66.3323 18.9401 66.2205 19.108C66.1925 19.039 66.183 18.9647 66.1928 18.8916C66.2025 18.8184 66.2312 18.7486 66.2764 18.6882ZM62.8776 20.1573C62.9178 20.1675 62.9603 20.1675 63.0005 20.1573C63.0005 20.2622 63.0005 20.3566 63.0005 20.3566C63.0005 20.3566 62.9446 20.2412 62.8776 20.1573ZM63.8838 22.0565C63.8838 22.109 63.8167 22.0565 63.8055 21.9936L63.8726 21.9411C63.8783 21.9724 63.882 22.0039 63.8838 22.0356V22.0565Z" fill="#547050" fill-opacity="0.2"/>
<path d="M58.9551 20.5142L58.9774 20.5876V20.5142H58.9551Z" fill="#547050" fill-opacity="0.2"/>
<path d="M45.0352 36.7261L44.9346 36.831C44.9905 36.8205 45.024 36.7995 45.0352 36.7261Z" fill="#547050" fill-opacity="0.2"/>
<path d="M46.4646 29.4545C46.4311 29.3811 46.4311 29.3811 46.4646 29.4545V29.4545Z" fill="#547050" fill-opacity="0.2"/>
<path d="M46.0749 31.8781L45.963 31.7627C45.963 31.7627 45.9071 31.8257 46.0749 31.8781Z" fill="#547050" fill-opacity="0.2"/>
<path d="M47.751 27.0208L47.7622 27.0093L47.751 27.0208Z" fill="#547050" fill-opacity="0.2"/>
<path d="M46.0073 31.6577C45.9403 31.6577 45.9403 31.7207 46.0073 31.7626C46.0744 31.8046 46.0409 31.7102 46.0073 31.6577Z" fill="#547050" fill-opacity="0.2"/>
<path d="M45.4815 39.5386H45.3809C45.3809 39.5386 45.392 39.5616 45.4815 39.5386Z" fill="#547050" fill-opacity="0.2"/>
<path d="M45.1459 38.6045C45.1459 38.657 44.9335 38.7724 45.023 38.8248H45.1124C44.9447 38.8248 45.3472 38.6045 45.1459 38.6045Z" fill="#547050" fill-opacity="0.2"/>
<path d="M46.3542 37.5654L46.2871 37.7228C46.3989 37.7228 46.5554 37.6179 46.6002 37.7228C46.9244 37.45 46.3318 37.7753 46.3542 37.5654Z" fill="#547050" fill-opacity="0.2"/>
<path d="M46.4766 37.0835C46.5436 37.1569 46.6554 37.0835 46.7225 37.0835C46.6107 37.0205 46.5772 37.01 46.4766 37.0835Z" fill="#547050" fill-opacity="0.2"/>
<path d="M46.7119 33.7563L46.9802 33.8298C46.9243 33.7564 46.9243 33.8088 46.7119 33.7563Z" fill="#547050" fill-opacity="0.2"/>
<path d="M45.4703 32.7598L45.2803 32.7808L45.5262 32.8752L45.4703 32.7598Z" fill="#547050" fill-opacity="0.2"/>
<path d="M47.5277 32.9382L47.5612 32.9697L47.4941 32.8438L47.5277 32.9382Z" fill="#547050" fill-opacity="0.2"/>
<path d="M50.3557 28.143L50.0762 27.9331C50.0874 28.0066 50.3892 28.2584 50.3557 28.143Z" fill="#547050" fill-opacity="0.2"/>
<path d="M51.9443 26.2331C52.0785 26.338 52.2127 26.38 52.1344 26.2331C52.0785 26.2331 51.9443 26.1492 51.9443 26.2331Z" fill="#547050" fill-opacity="0.2"/>
<path d="M59.1215 23.2529L59.1104 23.3684L59.1774 23.2529H59.1215Z" fill="#547050" fill-opacity="0.2"/>
</g>
<defs>
<clipPath id="clip0_534_19936">
<rect width="70" height="40" fill="white" fill-opacity="0.2" />
</clipPath>
</defs>
</svg>
