<svg width="16" height="16" viewBox="0 0 16 16" fill="none" xmlns="http://www.w3.org/2000/svg">
<rect width="16" height="16" rx="8" fill="#547050"/>
<path d="M4.59312 5.5V9.98071H7.11203V10.567H4V5.5H4.59312Z" fill="#F3EECE"/>
<path d="M10.9382 7.93218C11.6339 8.12762 12 8.59089 12 9.20617V9.21341C12 10.111 11.3629 10.567 10.1621 10.567H7.7896V5.5H9.86917C11.0042 5.5 11.6339 5.97051 11.6339 6.84638V6.85362C11.6339 7.33137 11.3922 7.71502 10.9382 7.93218ZM9.89846 6.06461H8.38272V7.72226H9.89846C10.638 7.72226 11.0408 7.39652 11.0408 6.88982V6.88258C11.0408 6.34692 10.6307 6.06461 9.89846 6.06461ZM11.4069 9.17722V9.16998C11.4069 8.64156 11.0042 8.28687 10.2133 8.28687H8.38272V10.0024H10.2133C11.0042 10.0024 11.4069 9.71288 11.4069 9.17722Z" fill="#F3EECE"/>
</svg>
