<svg width="262" height="227" viewBox="0 0 262 227" fill="none" xmlns="http://www.w3.org/2000/svg">
<g clip-path="url(#clip0_3309_99636)">
<path d="M0 16.164C0 7.23687 5.25643 0 11.7406 0H250.259C256.744 0 262 7.23687 262 16.164V210.836C262 219.763 256.744 227 250.259 227H11.7406C5.25643 227 0 219.763 0 210.836V16.164Z" fill="#547050"/>
<mask id="mask0_3309_99636" style="mask-type:alpha" maskUnits="userSpaceOnUse" x="0" y="0" width="262" height="227">
<rect width="262" height="227" rx="13" fill="#D9D9D9"/>
</mask>
<g mask="url(#mask0_3309_99636)">
<path fill-rule="evenodd" clip-rule="evenodd" d="M-232.861 17.4403C-232.861 110.837 -187.73 170.998 -117.87 170.998C-47.7015 170.998 -2.87988 110.837 -2.87988 17.4403C-2.87988 -75.9566 -47.7015 -136.118 -117.87 -136.118C-187.73 -136.118 -232.861 -75.9566 -232.861 17.4403ZM-27.9182 17.4403C-27.9182 90.6432 -63.1572 137.342 -117.87 137.342C-172.584 137.342 -207.823 90.6432 -207.823 17.4403C-207.823 -55.342 -172.584 -102.461 -117.87 -102.461C-63.1572 -102.461 -27.9182 -55.342 -27.9182 17.4403ZM-326.098 130.61V-129.807H-351.136V164.688H-219.762V130.61H-326.098ZM225.761 164.688L238.546 139.229L250.304 159.803V15.3367H203.319L200.537 37.6342C191.263 96.1124 173.335 134.817 125.113 134.817C69.7813 134.817 36.0878 86.4362 36.0878 17.0196V16.5988C36.0878 -49.4521 69.4722 -99.9369 125.113 -99.9369C177.353 -99.9369 207.646 -58.2869 211.665 -9.90565H235.776C231.448 -79.3223 192.5 -134.014 124.804 -134.014C54.6347 -134.014 11.0496 -71.7496 11.0496 15.3367V15.7574C11.0496 106.63 54.6347 168.895 124.804 168.895C188.481 168.895 214.447 117.148 225.575 37.6342V164.688H225.761ZM266.129 17.4403C266.129 110.837 311.26 170.998 381.12 170.998C451.289 170.998 496.111 110.837 496.111 17.4403C496.111 -75.9566 451.289 -136.118 381.12 -136.118C311.26 -136.118 266.129 -75.9566 266.129 17.4403ZM471.072 17.4403C471.072 90.6432 435.833 137.342 381.12 137.342C326.407 137.342 291.168 90.6432 291.168 17.4403C291.168 -55.342 326.407 -102.461 381.12 -102.461C435.833 -102.461 471.072 -55.342 471.072 17.4403ZM645.432 11.5504C674.798 22.9095 690.254 49.8347 690.254 85.5948V86.0155C690.254 138.183 663.361 164.688 612.666 164.688H512.513V-129.807H600.301C648.214 -129.807 674.798 -102.461 674.798 -51.5556V-51.1349C674.798 -23.3683 664.597 -1.07082 645.432 11.5504ZM601.538 -96.992H537.551V-0.650101H601.538C632.758 -0.650101 649.76 -19.5819 649.76 -49.0314V-49.4521C649.76 -80.5844 632.449 -96.992 601.538 -96.992ZM665.215 83.9119V83.4912C665.215 52.7796 648.214 32.165 614.83 32.165H537.551V131.872H614.83C648.214 131.872 665.215 115.044 665.215 83.9119ZM697.199 17.4403C697.199 110.837 742.33 170.998 812.19 170.998C882.359 170.998 927.18 110.837 927.18 17.4403C927.18 -75.9566 882.359 -136.118 812.19 -136.118C742.33 -136.118 697.199 -75.9566 697.199 17.4403ZM902.142 17.4403C902.142 90.6432 866.903 137.342 812.19 137.342C757.476 137.342 722.237 90.6432 722.237 17.4403C722.237 -55.342 757.476 -102.461 812.19 -102.461C866.903 -102.461 902.142 -55.342 902.142 17.4403ZM1056.1 170.998C986.24 170.998 941.11 110.837 941.11 17.4403C941.11 -75.9566 986.24 -136.118 1056.1 -136.118C1126.27 -136.118 1171.09 -75.9566 1171.09 17.4403C1171.09 110.837 1126.27 170.998 1056.1 170.998ZM1056.1 137.342C1110.81 137.342 1146.05 90.6432 1146.05 17.4403C1146.05 -55.342 1110.81 -102.461 1056.1 -102.461C1001.39 -102.461 966.148 -55.342 966.148 17.4403C966.148 90.6432 1001.39 137.342 1056.1 137.342ZM1349.78 -110.034L1331.54 -134.014L1212.53 13.6539V-129.807H1187.49V164.688H1212.53V21.2266L1331.54 168.895L1349.78 144.914L1244.37 17.4403L1349.78 -110.034Z" fill="#F3EECE"/>
</g>
</g>
<defs>
<clipPath id="clip0_3309_99636">
<rect width="262" height="227" fill="white"/>
</clipPath>
</defs>
</svg>
