<svg width="70" height="40" viewBox="0 0 70 40" fill="none" xmlns="http://www.w3.org/2000/svg">
<g clip-path="url(#clip0_534_19935)">
<path d="M26.3186 0C26.4192 0 26.6316 0 26.5534 0.178384H26.162L26.3186 0Z" fill="#547050" fill-opacity="0.2"/>
<path d="M26.7324 1.1127C26.6067 1.20068 26.4569 1.25332 26.3005 1.26446C26.1442 1.27561 25.9876 1.24481 25.8492 1.17566C26.2405 1.04974 26.1063 1.04974 26.5647 0.934317C26.5804 0.904815 26.5875 0.871983 26.5855 0.839084C26.5834 0.806185 26.5722 0.774363 26.553 0.74678C26.5338 0.719197 26.5072 0.696813 26.4759 0.681851C26.4446 0.66689 26.4097 0.659872 26.3747 0.661495C26.4865 0.661495 26.3747 0.420151 26.6094 0.388672C26.6578 0.438706 26.6921 0.499186 26.7095 0.56472C26.7269 0.630254 26.7267 0.698805 26.709 0.764258C26.6913 0.829712 26.6566 0.890035 26.608 0.939848C26.5594 0.98966 26.4985 1.02741 26.4306 1.04974C26.5535 1.14418 26.6653 1.1127 26.7324 1.1127Z" fill="#547050" fill-opacity="0.2"/>
<path d="M20.3713 14.061V13.9561C20.3775 13.9908 20.3775 14.0263 20.3713 14.061Z" fill="#547050" fill-opacity="0.2"/>
<path d="M11.8956 18.447C11.9138 18.4357 11.9352 18.4297 11.9571 18.4297C11.9789 18.4297 12.0003 18.4357 12.0186 18.447C11.9962 18.489 11.8956 18.489 11.8956 18.447Z" fill="#547050" fill-opacity="0.2"/>
<path d="M10.4652 19.2446H10.5547C10.5547 19.2446 10.4988 19.2676 10.4652 19.2446Z" fill="#547050" fill-opacity="0.2"/>
<path d="M20.3711 14.0605L20.2481 14.2914C20.1475 14.2179 20.2928 14.155 20.3711 14.0605Z" fill="#547050" fill-opacity="0.2"/>
<path d="M25.3116 2.80196C25.3389 2.75741 25.3826 2.72381 25.4346 2.70752L25.3675 2.81245L25.3116 2.80196Z" fill="#547050" fill-opacity="0.2"/>
<path d="M23.4553 11.2065V11.1436H23.623L23.4553 11.2065Z" fill="#547050" fill-opacity="0.2"/>
<path d="M25.1338 8.49997C25.1338 8.57342 24.8207 8.49997 24.6866 8.43701C24.7277 8.45814 24.7738 8.46921 24.8207 8.46921C24.8676 8.46921 24.9138 8.45814 24.9549 8.43701L25.1338 8.49997Z" fill="#547050" fill-opacity="0.2"/>
<path d="M21.9578 13.0112C21.9885 13.0349 22.0085 13.0687 22.0137 13.1057C21.9909 13.0765 21.9721 13.0448 21.9578 13.0112Z" fill="#547050" fill-opacity="0.2"/>
<path d="M69.1055 20.6191L69.1502 20.5666L69.3291 20.5142L69.1055 20.6191Z" fill="#547050" fill-opacity="0.2"/>
<path d="M7.60226 20.252C7.70288 20.2635 7.65816 20.275 7.60226 20.252V20.252Z" fill="#547050" fill-opacity="0.2"/>
<path d="M19.9122 18.4263C19.6104 18.6886 20.4153 18.7621 19.9122 19.0559C20.0017 18.9404 19.5321 18.6047 19.9122 18.4263Z" fill="#547050" fill-opacity="0.2"/>
<path d="M25.3125 2.88574V3.00117C25.2997 2.96363 25.2997 2.92327 25.3125 2.88574Z" fill="#547050" fill-opacity="0.2"/>
<path d="M0.715377 21.0597C0.709051 21.0145 0.709051 20.9686 0.715377 20.9233C0.727687 20.9681 0.727687 21.015 0.715377 21.0597Z" fill="#547050" fill-opacity="0.2"/>
<path d="M5.74707 19.937L5.62409 20C5.65991 19.9711 5.70181 19.9496 5.74707 19.937Z" fill="#547050" fill-opacity="0.2"/>
<path d="M2.24718 18.9923C2.31427 18.9923 2.33663 18.9294 2.42607 18.9923C2.42607 18.9923 2.32545 18.9504 2.24718 18.9923Z" fill="#547050" fill-opacity="0.2"/>
<path d="M4.98633 18.9717V19.0241H4.89689L4.98633 18.9717Z" fill="#547050" fill-opacity="0.2"/>
<path d="M58.0378 20.4723C58.0973 20.3936 58.1391 20.3043 58.1608 20.21C58.1272 20.4198 58.5297 20.4828 58.0378 20.4723Z" fill="#547050" fill-opacity="0.2"/>
<path d="M25.5137 2.84356C25.4889 2.83374 25.4623 2.82869 25.4354 2.82869C25.4085 2.82869 25.3819 2.83374 25.3571 2.84356V2.7701C25.3879 2.76764 25.4188 2.77319 25.4464 2.78615C25.474 2.79911 25.4973 2.81897 25.5137 2.84356Z" fill="#547050" fill-opacity="0.2"/>
<path d="M2.39351 21.3225L2.81836 21.27C2.67981 21.305 2.53697 21.3226 2.39351 21.3225Z" fill="#547050" fill-opacity="0.2"/>
<path d="M38.3935 20.6504H38.4941C38.4941 20.6504 38.4159 20.6849 38.3935 20.6504Z" fill="#547050" fill-opacity="0.2"/>
<path d="M4.06929 21.3017C4.13046 21.2128 4.21523 21.1405 4.31526 21.0918C4.31939 21.1196 4.31939 21.1479 4.31526 21.1757L4.06929 21.3017Z" fill="#547050" fill-opacity="0.2"/>
<path d="M61.0892 20.8707C60.6755 20.8707 60.888 20.4929 60.7985 20.2726C60.2954 20.1676 60.5637 20.5664 60.4072 20.7657C60.0942 20.6608 59.8482 20.3145 59.6246 20.325C59.6246 20.388 59.5575 20.4195 59.6246 20.4929C59.2892 20.1886 58.6519 20.4929 58.2718 20.1047C58.2683 20.1361 58.2683 20.1677 58.2718 20.1991C58.3079 20.0259 58.3079 19.8477 58.2718 19.6744C58.0817 19.6744 57.9252 19.4331 57.8581 19.6744C57.9699 19.6744 57.9811 19.7689 58.037 19.8423L57.8357 19.7374C57.668 20.1047 58.1041 19.8633 58.1152 20.1257C57.7351 20.0207 57.2879 19.7164 56.9972 19.8214C56.9972 20.1781 57.6792 19.9368 57.2879 20.2621L57.7351 20.1152C57.3997 20.6818 58.0146 20.1152 57.7351 20.6818C57.1425 20.7867 57.0755 20.5034 56.4829 20.6188C56.3487 20.4195 56.4829 20.325 56.3935 20.1257C55.5438 19.7794 55.7338 21.0281 55.1189 20.5664C54.9512 20.325 54.8841 19.8738 54.4481 20.1152L54.6046 20.5244C54.0232 20.5244 54.2692 19.9473 53.6655 20.2201C53.7773 20.3775 54.1239 20.346 54.0344 20.3985C53.6543 20.7238 53.7549 20.1781 53.453 20.1781L53.3971 20.5349C52.7934 20.5349 52.1114 20.2306 51.4406 20.1781C51.4406 20.2831 51.5971 20.3985 51.4406 20.5034C50.5496 20.4036 49.646 20.5006 48.802 20.7867L48.489 20.4824C48.4107 20.4824 48.3548 20.6293 48.4331 20.6818C48.1089 20.8077 48.4331 20.4929 48.2542 20.367C48.2197 20.3652 48.1855 20.3735 48.1562 20.3906C48.1269 20.4078 48.104 20.433 48.0905 20.4628C48.0771 20.4927 48.0737 20.5257 48.081 20.5574C48.0883 20.589 48.1058 20.6178 48.1312 20.6398C47.7958 20.4578 47.4228 20.3449 47.0373 20.3088C46.6517 20.2726 46.2624 20.3139 45.8952 20.43L46.007 20.5244C45.5486 20.6503 45.4703 19.8948 45.0455 20.1886L45.1349 20.2411C44.1287 20.388 43.0106 20.1152 42.2392 20.5874C42.0939 20.1466 41.2442 20.7972 41.1771 20.1781C40.6069 20.4929 40.7746 20.5978 39.9584 20.8182C39.746 20.8182 39.6342 20.43 39.3659 20.3775V20.6923L38.9969 20.3565L38.8068 20.7448L38.5609 20.6713C38.6151 20.6542 38.6623 20.6218 38.6963 20.5787C38.7303 20.5355 38.7494 20.4836 38.7509 20.43C38.5663 20.3892 38.3725 20.4061 38.199 20.4781C38.0255 20.55 37.8817 20.6731 37.7894 20.8287L36.8615 20.5664C36.8615 20.6923 37.0404 20.7448 37.1633 20.8182C36.6602 20.4929 37.0739 21.1645 36.6155 20.8182C36.6826 20.7448 36.6155 20.6293 36.6155 20.5664C36.4492 20.6602 36.2635 20.7199 36.0709 20.7417C35.8782 20.7634 35.6828 20.7465 35.4975 20.6923L35.5757 20.9126C34.8826 20.9756 34.1223 20.8287 33.3397 20.8392C33.3945 20.8159 33.4409 20.7782 33.4735 20.7308C33.5061 20.6833 33.5234 20.6281 33.5234 20.5716C33.5234 20.5152 33.5061 20.4599 33.4735 20.4124C33.4409 20.365 33.3945 20.3274 33.3397 20.304L33.2502 20.6503C33.1049 20.4405 33.485 20.5244 33.1832 20.2621C32.8925 20.2621 32.9931 20.6608 33.1832 20.7657L32.8366 20.6503C32.8366 20.7552 32.8366 20.8077 32.9148 20.9336C32.7695 20.7238 32.3223 21.2799 32.1098 20.9336V21.0281C31.3384 21.0281 30.9918 20.9336 30.3545 20.9231C30.3545 20.6188 30.0974 20.6923 29.9073 20.4509C29.4148 20.624 28.8995 20.7334 28.3756 20.7762C27.9843 20.6293 28.2638 20.5244 28.0849 20.346C28.0849 20.6188 27.5036 20.5978 27.7942 20.7867C27.2143 20.7779 26.6386 20.6932 26.0837 20.5349C26.1731 20.43 26.2849 20.3775 26.229 20.2831C26.1897 20.2771 26.1494 20.279 26.1109 20.2888C26.0725 20.2986 26.0367 20.316 26.006 20.3399C25.9753 20.3637 25.9503 20.3935 25.9329 20.4271C25.9154 20.4607 25.9058 20.4975 25.9048 20.5349C24.9544 20.1466 23.7246 21.3429 22.9644 20.7972L22.1817 20.5139C21.824 20.5664 22.3942 20.7133 22.1817 20.8812C21.3208 20.4509 20.8401 20.9651 20.1469 20.6713C19.6103 21.4688 18.2351 20.6713 17.5084 21.154V20.9651C17.3183 20.7867 17.2736 21.07 17.1394 21.1225C17.1394 20.9756 17.3407 20.9441 17.2289 20.8497C15.5734 20.8179 13.9204 20.9837 12.3095 21.3429C11.717 21.3429 11.9629 20.3775 11.1915 20.8392L11.4151 21.175C10.1964 20.7762 8.94424 21.175 7.75913 20.8812C7.83739 20.9651 7.8374 21.0595 7.9492 21.0595C7.70323 21.3114 7.03241 21.0595 7.02123 20.8812C6.84235 20.8812 7.02123 21.0595 6.87589 21.175C6.73055 21.2904 6.23861 20.8602 6.11563 21.112C6.11563 21.112 6.18271 21.1855 6.22743 21.2065C6.05973 21.091 5.46717 21.2064 5.6237 20.9546C5.17648 21.1015 4.77399 20.8392 4.4274 21.0071C4.19261 20.6923 3.66714 21.175 3.58887 20.7133C3.58887 21.196 2.81744 21.112 2.53793 20.8917C2.62737 21.0281 2.29196 21.0386 2.40376 21.2379C2.09071 21.2379 1.78885 21.1435 1.84475 20.9021C1.26337 21.4793 0.659637 20.4614 0.335411 21.196H0.190063L0 18.4572C0.847801 18.5767 1.70311 18.6433 2.5603 18.6566C2.45967 18.1844 1.62115 18.7196 1.59879 18.2264C2.41495 18.3208 2.92924 18.6671 3.70068 18.4467C3.89075 18.3523 3.55534 18.2579 3.47707 18.1844C4.29324 18.2789 4.98642 17.9221 5.71313 18.069C5.71313 18.069 5.61252 17.985 5.53426 17.9641C5.6796 17.9641 5.84731 17.8486 5.86966 18.0585H5.72432C5.55661 18.3943 6.39514 18.6146 6.45104 18.7615C6.10445 18.1949 7.11068 18.4887 6.5852 17.7857C6.64835 17.7997 6.70554 17.8312 6.74939 17.8761C6.79324 17.921 6.82173 17.9773 6.83117 18.0375C6.95415 17.9746 6.97651 17.8801 6.83117 17.7437C7.34546 17.7437 7.22248 18.027 7.65851 17.9431C7.65851 17.8381 7.53553 17.8172 7.46844 17.7017C7.58814 17.802 7.7353 17.8689 7.89334 17.8949C8.05138 17.9208 8.21401 17.9048 8.36287 17.8486C8.36287 17.7962 8.36287 17.7017 8.23989 17.7227C8.87716 17.6283 9.45854 18.0165 10.107 17.6598C9.78277 17.2715 10.3082 17.4499 10.23 17.0721H10.6325L10.543 17.303C10.8561 17.1981 11.2362 17.3974 11.471 17.1876L11.1803 17.1036L11.8064 17.0092L11.5157 17.24C11.907 17.345 11.6387 17.7227 12.0412 17.5024C11.9406 17.5024 12.3654 17.3974 12.4549 17.1141C12.545 17.1733 12.6523 17.205 12.7623 17.205C12.8723 17.205 12.9796 17.1733 13.0698 17.1141C13.0698 16.9777 12.8574 16.7259 12.8685 16.6314C13.148 16.8938 13.64 16.4635 13.9866 16.7049C13.9384 16.671 13.8978 16.6285 13.8671 16.5799C13.8364 16.5313 13.8162 16.4775 13.8077 16.4216L14.0425 16.6104C14.1431 16.4845 14.1543 16.4321 14.0425 16.2956C14.4561 16.0753 14.1095 16.7993 14.5344 16.4006C14.5344 16.4006 14.5344 16.4006 14.3891 16.4006C14.8586 16.1173 15.44 16.1278 15.8537 15.8025C15.7978 15.3932 15.4065 15.9074 15.3953 15.5401C16.1315 15.3973 16.8378 15.142 17.486 14.7846L17.3966 14.8896C17.799 15.3093 17.6761 14.3859 18.1345 14.4174C18.0338 14.4174 17.8438 14.218 17.8997 14.26C18.3895 13.9464 18.924 13.6991 19.4873 13.5254L19.3084 13.473C19.4649 13.2211 19.8227 12.9483 20.0016 12.707C20.1693 12.707 20.2811 12.623 20.3593 12.8329C20.3844 12.6073 20.4719 12.3918 20.6131 12.2077C20.7543 12.0237 20.9443 11.8775 21.1643 11.7836C21.5668 11.5737 21.9581 11.3324 21.9134 10.8077C21.8575 10.8812 21.6674 10.9126 21.7122 10.8077C21.7569 10.7028 22.0699 10.5034 22.2376 10.346C22.4277 10.5244 22.3159 10.4929 22.3942 10.7238C22.4914 10.7246 22.5874 10.7041 22.6747 10.6641C22.7621 10.624 22.8383 10.5654 22.8973 10.4929C22.5619 10.6608 22.5507 10.2726 22.506 10.0942C22.506 10.0942 22.6625 10.1571 22.7184 10.2096C22.5283 9.67445 23.1991 10.4195 23.2103 9.84234H23.0762C23.2439 9.71642 23.4898 9.65346 23.5569 9.45409C23.3333 9.24423 23.3333 9.55902 23.1097 9.45409C23.2662 9.22324 23.9035 9.22324 23.7582 8.86647C23.624 8.93992 23.5345 9.08683 23.4004 9.14979C23.2327 8.76154 23.3221 8.77203 23.4004 8.56217L23.4898 8.08998V8.22639C24.3507 8.22639 23.937 7.64926 24.6079 7.40792C23.9706 7.65976 24.3172 7.40792 23.9929 7.282C23.9929 7.14559 23.9259 6.93573 23.8252 6.94622C24.1606 6.84129 23.8252 6.54748 24.2613 6.39008C24.1606 6.33762 24.3395 6.16972 24.06 6.12775C24.1942 5.90739 24.1942 6.29564 24.3395 6.29564C24.865 6.00183 24.3395 5.18337 24.988 4.73216C25.3569 4.25997 25.7482 4.25997 26.106 3.80876C25.9942 3.5989 25.6923 3.80876 25.6923 3.80876C25.662 3.69326 25.6624 3.57252 25.6936 3.45722C25.7248 3.34191 25.7858 3.23561 25.8712 3.14769C25.7594 3.14769 25.7035 3.09522 25.6029 2.99029C25.6923 2.79092 26.0278 2.99029 25.9495 2.63352C25.7844 2.64459 25.6221 2.68 25.4687 2.73845C25.6364 2.5181 25.9048 2.32922 26.0613 2.09837C25.9048 1.99344 25.7482 2.18232 25.6029 2.24527C25.7594 1.98295 25.9719 1.55272 26.2849 1.53174L26.3408 1.7416C26.3408 1.63667 26.106 1.62618 26.0278 1.7416C25.7371 1.93048 26.0278 2.11936 26.1396 2.16133L26.2514 1.99344C26.8216 2.32922 25.9495 2.69648 25.8824 3.04276H26.3743L25.8936 3.31558C25.983 3.431 26.2178 3.54643 26.3408 3.38903C26.4861 3.70383 26.1172 3.57791 26.3408 3.86122C26.3408 3.86122 26.3408 3.86122 26.4191 3.86122L26.2066 4.08158C26.3184 4.08158 26.5085 4.2075 26.4973 4.08158C26.6091 4.60624 25.9271 4.72167 26.2066 4.98399C25.8377 5.57161 25.8601 4.98399 25.3122 5.30928L26.0054 5.86542H25.6588C25.6588 5.93887 25.6588 6.07529 25.7594 6.09627C25.4464 6.25367 25.6364 6.00183 25.3681 6.09627C25.5582 6.50551 24.9097 6.89375 25.3681 7.14559C25.0774 7.14559 25.2899 6.77833 24.9992 7.04066C25.5023 7.34496 24.742 7.38693 24.865 7.75419C25.1892 7.75419 25.1557 7.46039 25.2787 7.83814C24.742 7.83814 25.1333 8.41527 24.9321 8.61464C24.5631 8.46773 24.5184 9.05535 24.1942 9.38064C24.3283 9.38064 23.9929 10.1886 23.8811 10.6083H23.9482C23.5457 10.4719 23.4004 10.8707 23.1321 11.07C23.2102 11.1179 23.3015 11.1434 23.3948 11.1434C23.4881 11.1434 23.5794 11.1179 23.6575 11.07L23.4786 11.3114C23.4022 11.303 23.3247 11.312 23.2527 11.3375C23.1808 11.3631 23.1164 11.4045 23.065 11.4583L23.3668 11.5632C23.1097 11.878 22.5954 11.9934 22.4165 12.4866C22.1817 12.3292 22.0587 11.7311 21.5668 11.9829C21.6786 12.0984 21.8575 12.2663 22.0028 12.2033C22.0028 12.2033 21.8016 12.2033 21.7904 12.3502H22.1258C22.0587 12.5811 21.8799 12.3502 21.7792 12.4446C21.9469 12.5811 21.7792 12.644 21.9581 12.728C22.137 12.8119 21.9581 12.5601 22.1035 12.5601C21.9872 12.743 21.9474 12.9598 21.9917 13.1687C21.9134 13.0742 21.7681 12.9798 21.6451 13.0742C21.3656 13.3471 21.7457 13.3471 21.6451 13.5779C21.4662 13.5779 21.3879 13.8193 21.1531 13.5779C21.0637 13.6619 21.1531 13.7773 21.1531 13.8717C20.896 13.8717 20.4041 14.4803 20.337 14.0816C19.6103 14.26 19.3755 15.0784 18.727 15.3303L18.7941 15.4142C18.3916 15.5296 18.0115 15.8339 17.6761 15.7815C17.6241 15.8323 17.5951 15.9 17.5951 15.9704C17.5951 16.0408 17.6241 16.1084 17.6761 16.1592C17.363 16.2432 17.2736 16.1592 16.9717 16.5055C17.3407 16.5055 16.9717 16.6944 17.3183 16.5055C17.0164 16.7678 17.0164 16.9777 16.491 16.9042C16.7593 17.0826 16.3792 17.324 16.1667 17.3345L16.368 16.8413C16.1773 16.893 15.9989 16.9785 15.8425 17.0931L16.0885 17.3659C15.5183 18.1215 14.4114 17.261 14.1207 18.1529C13.83 18.006 14.4785 17.8381 14.1766 17.6388C13.8524 17.8276 13.6623 18.4048 13.5505 18.4467C13.1257 18.793 12.9133 18.1215 12.4325 18.4467C12.4446 18.3868 12.442 18.325 12.4246 18.2662C12.4073 18.2073 12.3759 18.153 12.3327 18.1074C12.2894 18.0618 12.2357 18.0261 12.1754 18.003C12.1152 17.98 12.0502 17.9703 11.9853 17.9746C11.6499 18.1215 11.717 18.5937 11.9853 18.6251C12.2536 18.6566 12.0971 18.5622 12.0859 18.5202C12.0747 18.4782 12.3878 18.5202 12.2872 18.7091L12.1977 18.6041C12.0636 18.772 11.5604 18.9084 11.7393 19.0658C11.4263 19.0658 11.5604 18.9084 11.7393 18.7825C11.3257 19.0868 11.0126 19.0029 10.5654 19.2337C10.6325 19.1498 10.6548 18.9924 10.5654 19.0134C9.90575 19.3282 10.1964 18.856 9.70451 18.9189C9.49208 19.1708 9.91693 19.3387 9.40264 19.2967C9.13431 19.4856 9.40264 19.6325 9.55916 19.7059C9.05605 19.559 8.77654 20.0312 8.53057 20.1257L8.78772 20.1781C8.65889 20.151 8.52525 20.151 8.39641 20.1781L8.47467 19.9368C8.35169 20.0102 8.22871 20.0312 8.25107 20.1361C8.08336 20.0102 8.25107 19.7059 7.9492 19.5485C7.79268 19.7059 7.36782 19.5485 7.36782 19.8528C7.91566 19.643 7.36782 20.1886 7.87094 20.1571C7.75113 20.14 7.62868 20.1622 7.52435 20.2201C7.52435 20.2201 7.52435 20.2831 7.60261 20.2935C7.11068 20.6923 7.2672 19.9788 6.70818 20.0837C6.80881 20.2621 6.6411 20.4614 6.54048 20.4405C6.76408 20.388 6.54048 20.1152 6.35041 20.0102C6.01501 20.2096 5.93674 20.0102 5.74668 20.0102L5.94792 19.9053C5.8473 19.7374 5.66841 19.7899 5.40009 19.7689C5.40009 19.9158 5.65723 19.8318 5.56779 19.9158C5.23238 19.6325 4.9976 20.346 4.56156 20.1886C4.40504 20.3355 4.56157 20.5349 4.44976 20.6398C3.96901 20.4614 4.01373 20.9546 3.5218 20.8287C3.61124 20.5559 3.64478 20.6188 3.28701 20.4195L4.06963 20.4929L3.53297 20.1991C3.75658 20.1991 4.03609 20.2831 4.17026 20.1991C3.90192 20.0312 3.93547 20.0942 4.01373 19.8738C3.75658 20.2831 3.36527 19.7479 3.04105 20.0417L3.14166 20.6503C2.62737 20.9966 2.12426 20.4614 1.43108 20.7028L1.64351 20.5664C1.52052 20.3355 1.20747 20.5664 0.96151 20.5664C0.96151 20.7657 0.872063 20.8602 0.7938 20.9966C0.7938 20.8602 0.380127 20.9966 0.212425 20.7762L0.0894394 19.0868C0.0957413 19.1251 0.0957413 19.164 0.0894394 19.2023L0.447212 18.8875C1.01741 18.772 1.10685 19.4646 1.65469 19.3911C1.48698 19.1708 1.74413 19.0239 1.364 18.8665C1.55406 18.8665 1.72177 18.814 1.72177 18.9609C1.83357 18.835 2.23606 19.2337 2.40376 19.0344C2.48203 19.1288 2.51557 19.3387 2.71682 19.3282C2.72876 19.2941 2.72876 19.2573 2.71682 19.2232C2.71682 19.3282 3.04104 19.3597 2.86216 19.5905C3.42117 18.9399 4.44976 19.5905 4.9417 19.0554C5.35571 19.1249 5.77391 19.1704 6.19389 19.1918C6.19389 19.1288 6.19389 19.0868 6.11563 19.1183C6.61874 18.9189 6.43986 19.7059 7.01006 19.4856C7.28956 19.1498 6.697 19.3072 6.87589 19.1813C6.95415 18.4992 7.56907 19.2652 7.99392 18.856H7.90448C8.19516 18.6146 8.6312 19.1078 9.11195 19.0449C9.10485 19.03 9.10119 19.0139 9.10119 18.9976C9.10119 18.9814 9.10485 18.9653 9.11195 18.9504C9.52365 19.2552 10.0208 19.4411 10.543 19.4856C10.3865 19.2232 10.3306 19.3492 10.4089 19.0763C10.6213 19.0763 10.4089 19.517 10.7666 19.5905C10.9008 19.4436 11.2027 19.3072 11.2362 19.0239H10.8449C11.0461 18.6566 11.348 19.0239 11.5604 18.9714V18.8035C12.1642 18.856 12.1754 19.2652 12.8238 19.2232L12.7567 19.3492C13.1145 19.7584 13.0474 19.1183 13.4052 19.4226L13.5058 19.0029C13.8985 19.1945 14.3105 19.3491 14.7356 19.4646C14.437 19.1971 14.0883 18.9837 13.7071 18.835C13.9307 18.835 14.4897 18.835 14.6127 19.0554C14.512 19.0554 14.4002 18.9189 14.3108 18.9819C14.4431 19.139 14.6138 19.2639 14.8084 19.3461C15.003 19.4282 15.2158 19.4653 15.4288 19.4541C15.3394 18.6461 16.6251 19.2337 16.9493 18.6041C17.7543 18.898 18.5481 18.4677 19.4985 18.4992C19.1742 19.1288 19.778 18.4992 19.7221 19.1603C19.9457 19.1603 20.0239 19.1603 20.0463 19.1603L20.7059 18.772C20.8625 18.5832 20.5047 18.6356 20.5159 18.4887C20.9966 18.4363 20.7171 18.2159 21.0302 18.0375C20.9743 18.2684 21.209 18.3733 21.4774 18.2789L21.0972 18.5832C21.7792 18.9084 21.6674 18.0375 22.3606 18.3628L22.137 18.1634C22.4836 18.2789 23.4227 18.1634 23.7693 18.6566C23.8364 18.5832 23.9147 18.4048 23.7693 18.3628C24.5967 18.2789 25.6253 18.8875 26.2737 18.5622L26.2066 18.4153C26.3632 18.4153 26.4861 18.6986 26.6762 18.5412C26.6762 18.4782 26.6091 18.3838 26.6762 18.3733C26.7433 18.3628 27.1011 18.6461 27.3023 18.5517L27.1234 18.3733C27.9396 18.1634 28.3756 18.793 29.0576 18.898C29.0576 18.4363 29.6837 18.2789 30.0079 18.1949V18.132C30.8626 18.1939 31.7028 18.3742 32.5012 18.6671C33.0378 18.1634 34.3347 18.4363 35.2068 18.1529C35.0726 18.2369 35.2068 18.5097 35.3857 18.5517C35.5646 18.5937 35.9559 18.8665 35.9223 18.4467H35.8441C36.0006 18.027 36.4254 18.132 36.7497 18.1215L36.8056 18.6671C37.6665 17.8591 39.0416 18.9399 39.5336 18.2159C39.7348 18.3523 39.992 18.3418 40.2044 18.4782V18.1844C40.7195 18.0872 41.2476 18.066 41.7696 18.1215L41.6243 17.9116C42.0268 17.9116 42.1386 18.7615 42.5187 18.7825L42.6193 18.3313C43.3237 18.3313 44.0281 17.9326 44.7212 18.3313C44.7212 18.2684 44.7212 18.1424 44.5759 18.1215C44.9001 18.1215 45.8393 17.8067 45.6939 18.4153C45.6939 18.0165 46.4206 18.4153 46.8119 18.5412L46.7449 18.2474C47.0691 18.6251 47.0803 18.7196 47.5275 18.8245C47.6393 18.8245 47.6169 18.5832 47.5275 18.6671C47.8741 18.5097 47.807 18.9399 48.2318 18.772L48.0641 18.5936C48.4331 18.5936 48.3995 18.6671 48.6008 18.877C48.6735 18.9 48.7503 18.9092 48.8267 18.9043C48.9032 18.8993 48.9779 18.8801 49.0465 18.848C49.1151 18.8158 49.1762 18.7712 49.2264 18.7167C49.2765 18.6623 49.3147 18.599 49.3387 18.5307C49.3946 18.6986 49.5958 18.9084 49.8083 18.8245C49.8132 18.7884 49.8074 18.7516 49.7917 18.7183C49.7759 18.685 49.7507 18.6564 49.7188 18.6356C50.3114 18.4363 50.6133 18.9714 51.0269 18.6356C51.0268 18.5707 51.0505 18.5077 51.094 18.4572C50.817 18.4473 50.5397 18.4649 50.2667 18.5097C50.2667 18.2474 50.6468 18.1949 50.3337 17.8276C50.658 18.027 51.1946 18.4572 51.5636 18.3313C51.5694 18.3001 51.5694 18.2681 51.5636 18.2369C51.6019 18.2193 51.6439 18.2101 51.6866 18.2101C51.7292 18.2101 51.7713 18.2193 51.8095 18.2369C51.9044 18.1839 52.0123 18.155 52.1226 18.1529C52.1226 17.9221 52.5586 18.027 52.7599 18.0165C52.7599 18.3103 52.9947 18.2579 52.7599 18.4992C52.7599 18.4992 52.7599 18.4992 52.5922 18.4992C52.4245 18.4992 52.5922 18.4992 52.5139 18.4992H52.0331C52.1897 18.6461 52.3462 18.772 52.5586 18.6041C52.6405 18.7672 52.7339 18.9249 52.8381 19.0763C53.0953 18.6671 53.6096 18.4363 53.6767 18.1844C54.2692 18.3418 55.0742 18.2789 55.4543 18.8245C55.622 18.898 55.6444 18.6671 55.7003 18.5832C55.7562 18.4992 55.4879 18.5307 55.432 18.4572C55.7786 18.5937 56.427 18.4572 56.55 18.8875C56.9748 18.7091 56.304 18.5307 56.8966 18.5936L56.6171 18.3628C57.7351 17.7332 58.4954 19.3387 59.7587 18.5307C59.6693 18.5307 59.6246 18.6041 59.6134 18.6671C61.0557 18.2998 62.5985 18.9609 64.0184 18.3943C64.4209 18.2789 64.4657 18.5202 64.7228 18.7091L64.8011 18.3838L65.2371 18.751C65.852 19.0134 66.2321 17.9536 67.0595 18.4572L66.9365 18.6776C67.2831 18.6146 67.898 18.9189 67.9092 18.6776C67.9092 18.6776 67.9092 18.9084 68.0992 18.8455L68.1552 18.6881C68.3807 18.8526 68.5836 19.043 68.7589 19.2547C68.8421 19.3014 68.9415 19.3154 69.0357 19.2938C69.1298 19.2722 69.2111 19.2167 69.262 19.1393C69.3626 19.0344 69.5862 18.9399 69.944 19.4121C69.9902 19.5389 70.0081 19.6733 69.9966 19.8069C69.9851 19.9405 69.9443 20.0704 69.8769 20.1886C69.7316 20.4195 69.5415 20.5559 69.4968 20.5139C69.4521 20.4719 69.4968 20.2306 69.2732 20.2935C69.2366 20.3917 69.1838 20.4837 69.1167 20.5664C68.9015 20.6459 68.6812 20.7125 68.457 20.7657C68.2938 20.7871 68.1283 20.7871 67.9651 20.7657C68.0608 20.688 68.1307 20.586 68.1663 20.4719C68.0901 20.5052 68.0187 20.5475 67.9539 20.5978V20.6923C67.7415 20.7657 67.8868 20.6398 67.9539 20.5244C67.8932 20.5899 67.8258 20.6497 67.7527 20.7028C67.7962 20.5374 67.7962 20.3645 67.7527 20.1991C67.652 20.367 67.6856 20.5874 67.5067 20.6293C67.5067 20.3775 67.7974 20.2726 67.6297 20.0627C67.4061 20.2306 67.4173 20.4195 67.2943 20.1991C67.2717 20.2396 67.26 20.2846 67.26 20.3303C67.26 20.3759 67.2717 20.4209 67.2943 20.4614C67.1936 20.2831 66.9589 20.346 66.9141 20.0837C66.7688 20.3565 66.1874 20.0207 66.2321 20.4824C66.0841 20.2989 65.8759 20.1662 65.6396 20.1047C66.0085 20.6608 64.8793 20.1047 64.9799 20.7448C64.7004 20.2411 63.9849 20.5349 63.5041 20.2621C63.5041 20.2621 63.5824 20.3775 63.6271 20.3565C63.3476 20.3565 63.2805 20.5454 63.1017 20.6398C63.1017 20.2306 62.6321 20.1466 62.3973 19.8948C62.0731 20.2935 62.6097 20.367 62.5091 20.7552C62.5091 20.4195 61.9277 20.43 62.0395 20.1466C61.7824 20.3985 61.8159 20.2726 61.6929 20.6083C61.6929 20.0942 61.447 20.5244 61.2345 20.2201C60.8656 20.4719 61.1451 20.7028 60.7314 20.5454C60.6755 20.6923 61.0892 20.8707 61.0892 20.8707ZM50.5797 20.0942C50.6949 20.0829 50.8111 20.0829 50.9263 20.0942C50.9263 19.9892 50.9263 19.8843 50.8369 19.8843C50.7474 19.8843 50.6468 20.0102 50.535 20.0942H50.5797ZM52.2679 17.9955C52.145 17.9955 52.1002 17.9955 52.0779 18.0795H52.3127C52.2844 18.0597 52.2545 18.0422 52.2232 18.027L52.2679 17.9955Z" fill="#547050" fill-opacity="0.2"/>
<path d="M52.4587 18.416H52.5146C52.4976 18.4453 52.4698 18.4677 52.4364 18.479V18.395L52.4587 18.416Z" fill="#547050" fill-opacity="0.2"/>
<path d="M20.4164 13.9455C20.4207 13.9283 20.4207 13.9103 20.4164 13.8931C20.4224 13.9101 20.4224 13.9285 20.4164 13.9455Z" fill="#547050" fill-opacity="0.2"/>
<path d="M39.2991 20.7766V20.7031L39.3662 20.7766H39.2991Z" fill="#547050" fill-opacity="0.2"/>
<path d="M22.5057 10.1259C22.4944 10.0989 22.4944 10.069 22.5057 10.042C22.5111 10.0697 22.5111 10.0982 22.5057 10.1259Z" fill="#547050" fill-opacity="0.2"/>
<path d="M23.3783 8.56213V8.2998C23.3908 8.38685 23.3908 8.47509 23.3783 8.56213Z" fill="#547050" fill-opacity="0.2"/>
<path d="M5.48926 18.0062H5.43336C5.2992 17.9642 5.38864 17.9747 5.48926 18.0062Z" fill="#547050" fill-opacity="0.2"/>
<path d="M12.3877 17.1353L12.1306 17.0723C12.2312 17.0199 12.3206 16.9779 12.3877 17.1353Z" fill="#547050" fill-opacity="0.2"/>
<path d="M11.8178 17.1769C11.8586 17.1389 11.9078 17.1098 11.9619 17.0917C12.016 17.0736 12.0737 17.0668 12.1309 17.072C12.041 17.1372 11.9314 17.1739 11.8178 17.1769Z" fill="#547050" fill-opacity="0.2"/>
<path d="M25.6472 1.60544V1.54248H25.7031L25.6472 1.60544Z" fill="#547050" fill-opacity="0.2"/>
<path d="M25.7038 1.54196V1.479C25.7038 1.479 25.7374 1.54196 25.7038 1.54196Z" fill="#547050" fill-opacity="0.2"/>
<path d="M25.8828 1.34326L25.7598 1.47967C25.7594 1.44685 25.7716 1.41499 25.7942 1.38994C25.8168 1.36488 25.8483 1.34831 25.8828 1.34326Z" fill="#547050" fill-opacity="0.2"/>
<path d="M25.3125 3.41148H25.2007C25.2182 3.40321 25.2373 3.39893 25.2566 3.39893C25.2759 3.39893 25.295 3.40321 25.3125 3.41148Z" fill="#547050" fill-opacity="0.2"/>
<path d="M25.0893 3.92431C25.0893 3.79839 24.9551 3.54656 25.0893 3.38916H25.1787C24.9775 3.43113 25.3129 3.86135 25.0893 3.92431Z" fill="#547050" fill-opacity="0.2"/>
<path d="M25.6359 6.56862L25.7254 6.08594C25.8036 6.20136 25.9266 6.35876 26.0272 6.15939C26.1502 6.85194 25.8148 5.96002 25.6359 6.56862Z" fill="#547050" fill-opacity="0.2"/>
<path d="M25.1998 8.01728C25.3675 7.79692 25.3675 8.08024 25.4346 8.09073C25.2557 8.20615 25.211 8.22714 25.1998 8.01728Z" fill="#547050" fill-opacity="0.2"/>
<path d="M17.6428 16.1279L17.8105 16.3483C17.5981 16.4112 17.7546 16.2538 17.6428 16.1279Z" fill="#547050" fill-opacity="0.2"/>
<path d="M15.0487 15.8446L15.1493 15.6138L15.3506 15.7922L15.0487 15.8446Z" fill="#547050" fill-opacity="0.2"/>
<path d="M14.6909 18.0796H14.8027L14.4226 18.1216L14.6909 18.0796Z" fill="#547050" fill-opacity="0.2"/>
<path d="M4.49512 18.7088L4.43922 19.0446C4.29387 18.9816 4.26033 18.6144 4.49512 18.7088Z" fill="#547050" fill-opacity="0.2"/>
<path d="M12.6559 18.9614C12.7453 18.7935 12.9689 18.6886 13.1143 18.846C12.9242 18.8879 12.7453 19.0034 12.6559 18.9614Z" fill="#547050" fill-opacity="0.2"/>
<path d="M37.1076 18.1533L36.9399 18.0483L37.2529 18.1323L37.1076 18.1533Z" fill="#547050" fill-opacity="0.2"/>
<path d="M24.273 40.0002C24.1723 40.0002 23.9711 39.8952 24.027 39.8638L24.3848 39.9582L24.273 40.0002Z" fill="#547050" fill-opacity="0.2"/>
<path d="M23.7473 39.4438C24.0303 39.4445 24.3093 39.5055 24.5635 39.6222C24.2057 39.6222 24.3399 39.6222 23.9262 39.5593C23.8591 39.5593 24.0045 39.6747 24.1274 39.7167C24.038 39.7167 24.1833 39.8216 23.9597 39.7167C23.7361 39.6117 23.725 39.4753 23.9597 39.4648C23.8898 39.4515 23.8187 39.4445 23.7473 39.4438Z" fill="#547050" fill-opacity="0.2"/>
<path d="M22.707 32.0249C22.707 32.0249 22.707 32.0774 22.6511 32.0879C22.5952 32.0984 22.6735 32.0354 22.707 32.0249Z" fill="#547050" fill-opacity="0.2"/>
<path d="M23.6807 34.7323L23.5577 34.6694C23.6695 34.6274 23.6583 34.7008 23.6807 34.7323Z" fill="#547050" fill-opacity="0.2"/>
<path d="M23.378 36.927C23.5265 36.9084 23.6767 36.9084 23.8252 36.927C23.7512 36.9139 23.6756 36.9139 23.6016 36.927H23.378Z" fill="#547050" fill-opacity="0.2"/>
<path d="M23.3672 35.3314H23.2554C23.2918 35.3199 23.3308 35.3199 23.3672 35.3314Z" fill="#547050" fill-opacity="0.2"/>
<path d="M0.424911 20.0425L0.447266 20.0635L0.424911 20.2209V20.0425Z" fill="#547050" fill-opacity="0.2"/>
<path d="M15.8868 25.3201C16.1216 25.1417 15.8868 24.9528 16.2334 24.7744C16.1551 24.8689 16.0881 25.1836 15.8868 25.3201Z" fill="#547050" fill-opacity="0.2"/>
<path d="M20.3145 28.4785C20.3145 28.4785 20.2474 28.4785 20.2586 28.4785C20.2586 28.4785 20.2697 28.49 20.3145 28.4785Z" fill="#547050" fill-opacity="0.2"/>
<path d="M4.67383 19.2651C4.63736 19.3505 4.60747 19.4381 4.58438 19.5275C4.6291 19.3176 4.50612 19.2232 4.67383 19.2651Z" fill="#547050" fill-opacity="0.2"/>
<path d="M22.2383 27.0095L22.1041 26.915C22.1558 26.9368 22.2016 26.969 22.2383 27.0095Z" fill="#547050" fill-opacity="0.2"/>
<path d="M21.8242 26.5479C21.755 26.5848 21.6793 26.6097 21.6006 26.6213C21.5954 26.6006 21.5954 26.579 21.6006 26.5583L21.8242 26.5479Z" fill="#547050" fill-opacity="0.2"/>
<path d="M3.72363 18.6882C3.86897 18.6882 3.72363 19.0765 3.72363 19.2968C3.72363 19.5172 3.84661 19.024 3.93605 18.8456C4.0255 18.9611 4.04786 19.3178 4.12612 19.3178C4.13881 19.2625 4.13881 19.2053 4.12612 19.1499C4.18202 19.4752 4.45035 19.2129 4.51743 19.6221V19.5277C4.46831 19.7002 4.43097 19.8754 4.40562 20.0523C4.40562 20.0523 4.47271 20.3042 4.53979 20.0523C4.53979 20.0523 4.53979 19.9474 4.53979 19.874V19.9894C4.66277 19.6431 4.47271 19.853 4.53979 19.5801C4.65159 19.7166 4.74103 20.0418 4.86402 19.9579C4.94228 19.6116 4.65159 19.8005 4.86402 19.5067L4.68513 19.6221C4.89756 19.087 4.58451 19.6221 4.79694 19.066C5.02054 18.9925 4.987 19.2758 5.21061 19.2129C5.21061 19.4123 5.14353 19.4962 5.15471 19.6956C5.36713 20.0943 5.53484 18.8561 5.65782 19.3598C5.65782 19.6011 5.60192 20.0523 5.80316 19.8425V19.4332C6.00441 19.4332 5.80316 20.0209 6.06031 19.79C6.06031 19.6326 5.93733 19.6326 5.97087 19.5906C6.16093 19.2968 5.97087 19.832 6.11621 19.8425L6.30628 19.5067C6.49634 19.6011 6.67523 19.9054 6.88766 20.0104C6.87631 19.8981 6.8996 19.7852 6.95474 19.6851C7.21189 19.9159 7.58083 19.7585 7.91624 19.6116V19.9369C7.91624 19.9369 7.9945 19.811 7.98332 19.748C7.97214 19.6851 7.98332 19.9369 7.98332 20.0733C7.98332 20.2097 8.10631 19.9159 8.09513 19.811C8.22929 20.1153 8.49762 20.4721 8.78831 20.2097V20.1048C8.97837 20.0209 8.78831 20.7659 9.02309 20.514V20.4616C9.39204 20.4091 9.68273 20.7659 10.074 20.3881C9.99578 20.8288 10.4654 20.2937 10.3088 20.8918C10.5883 20.6505 10.566 20.535 10.9014 20.4091C10.9908 20.4091 10.9014 20.8079 10.9014 20.8918L11.0132 20.5875V20.9862L11.2033 20.64L11.2592 20.7449C11.1837 20.7947 11.1316 20.8698 11.1138 20.9548C11.1921 21.1331 11.5051 20.8288 11.561 20.6819L11.7846 21.0282C11.8079 20.9386 11.8079 20.845 11.7846 20.7554C11.8405 21.1226 11.93 20.4406 11.9747 20.7554C11.9354 20.8278 11.9089 20.9058 11.8964 20.9862C11.9187 20.9537 11.9493 20.927 11.9855 20.9085C12.0216 20.89 12.0621 20.8803 12.1033 20.8803C12.1444 20.8803 12.1849 20.89 12.2211 20.9085C12.2572 20.927 12.2878 20.9537 12.3101 20.9862V20.7659C12.5672 20.7659 12.7573 21.0387 13.0145 21.1226C12.8915 21.1856 12.7573 21.5529 12.8244 21.6158L12.9809 21.301C12.9809 21.5214 12.8579 21.3955 12.8579 21.6788C12.9586 21.6788 13.0704 21.3325 13.0592 21.2066L13.1263 21.364C13.1603 21.2752 13.1865 21.184 13.2045 21.0912C13.2045 21.301 13.5399 20.8498 13.4729 21.2171V21.1226C13.73 21.2171 13.7971 21.3745 13.9983 21.4689C13.8753 21.7417 13.9983 21.7103 13.9983 21.9516C14.1884 21.9516 14.4567 21.7942 14.6244 21.8886C14.7921 21.9831 14.5462 22.1405 14.5238 22.3189C14.658 22.0775 14.8257 22.1825 14.8145 21.9621C15.0115 22.074 15.1585 22.2493 15.2282 22.4553C15.1499 22.5392 15.094 22.5602 15.0716 22.6547C15.0493 22.7491 15.2282 22.6022 15.2841 22.4868C15.3847 22.9904 16.4021 22.13 16.3238 22.7491L16.4133 23.1373C16.5474 23.1373 16.4133 22.9275 16.6257 22.8225C16.6257 23.3577 17.0729 23.0009 17.1176 23.3682C17.7437 22.7911 17.6655 23.7669 18.2357 23.4836L18.1127 23.6305C18.0568 23.8194 18.2468 23.6305 18.3139 23.6305C18.2133 23.7459 18.1462 23.725 18.1239 23.8299C18.4593 24.3126 19.2419 24.2706 19.8568 24.5119C20.0581 24.6064 19.2754 25.3199 19.8568 25.152L20.0357 24.8477C20.0357 25.4249 20.7289 25.4039 20.7624 25.9495C20.7624 25.8761 20.8854 25.8026 20.8519 25.7711C21.109 25.6557 21.0978 25.9915 20.9413 26.1384C21.0084 26.1384 21.0978 26.023 21.2096 25.9705C21.3214 25.918 21.1202 26.3482 21.3438 26.2118C21.3438 26.2118 21.3438 26.1384 21.3997 26.1174C21.4556 26.0964 21.6009 26.2853 21.3438 26.4427C21.5562 26.4427 21.4332 26.747 21.6568 26.726C21.4444 26.9988 21.9699 26.8204 21.6568 27.1352C22.037 26.8204 22.1488 27.1352 22.0258 27.3031C22.1264 27.1877 22.2047 27.3031 22.35 27.1247C22.4171 27.2192 22.4059 27.3556 22.1823 27.492C22.7972 27.3031 22.0481 28.0796 22.7525 27.7438C22.7374 28.0948 22.7599 28.4464 22.8196 28.7932C23.2444 28.5308 22.6854 28.4994 23.1326 28.237C23.1326 28.5833 22.842 28.9296 23.1326 29.0975C23.4233 29.2654 23.3003 28.9611 23.3562 28.8876C23.3562 29.2234 23.6917 29.3283 23.5799 29.6746C23.6214 29.6455 23.6526 29.6052 23.6693 29.5592C23.6693 29.6116 23.7923 29.6326 23.591 29.7271V29.6536C23.2556 29.748 23.0767 30.1363 22.9202 30.2202C23.4569 29.8635 23.1885 30.3566 23.8594 29.874C23.8065 29.9644 23.7183 30.0321 23.6134 30.0628C23.6805 30.0628 23.7699 30.0628 23.9041 29.9474C23.9041 30.1468 23.6246 30.1992 23.714 30.3357C23.7939 30.2862 23.8687 30.23 23.9376 30.1678C23.7923 30.3357 23.6246 30.4931 23.7699 30.577C23.9153 30.6609 23.9153 30.514 23.8929 30.4826C23.96 30.7029 23.5351 31.0597 23.8929 31.1961C24.2954 30.9443 24.0718 31.1961 24.4631 31.0702L24.4072 31.2381H24.1948C24.1948 31.343 24.0159 31.5424 24.1948 31.5843V31.364V31.5948L24.0047 31.5319C23.8482 31.7208 23.5016 31.6998 23.6693 31.8047C23.837 31.9096 23.6693 31.9096 23.9712 31.8782C23.8594 31.9726 23.7476 32.0775 23.8817 32.1195C24.0159 32.1615 24.3066 31.9621 24.396 31.9411C24.0941 32.109 24.396 32.2244 24.0718 32.4028C24.1757 32.3465 24.2891 32.3074 24.4072 32.2874L24.15 32.4133C24.2513 32.4469 24.3618 32.4469 24.4631 32.4133C24.5637 32.5497 23.9488 32.5182 24.2171 32.6337C24.25 32.6127 24.28 32.588 24.3066 32.5602C24.4743 32.7176 24.2395 32.959 24.4184 33.0954C24.8432 33.0429 24.4743 32.917 24.832 32.8855C24.832 33.1583 24.5078 33.5151 24.642 33.725C24.0718 33.8719 24.9662 33.8509 24.7202 34.0188C24.7979 33.983 24.8808 33.9582 24.9662 33.9453C25.1004 34.0922 24.8991 34.3126 24.7538 34.5854H24.8991C25.0668 34.6588 25.0109 34.8372 25.0892 34.9317C24.9438 34.9317 24.9774 35.0366 24.7538 35.0261C25.637 35.2884 24.3625 35.6662 25.078 35.918C25.078 35.918 25.2122 35.8341 25.2122 35.918L25.078 36.1699C24.8209 36.1699 24.9215 36.1699 24.7202 36.0859C24.519 36.002 24.4407 36.1909 24.4407 36.2538C24.6196 36.1384 24.8544 36.2538 24.9998 36.2538C24.9179 36.2486 24.8357 36.2486 24.7538 36.2538C25.2122 36.3797 24.2395 36.2538 24.5414 36.4427H24.6755C24.6084 36.5056 24.4296 36.5686 24.4743 36.6316C24.765 36.6316 24.6084 36.5686 24.8544 36.5686C24.8544 36.6735 24.2842 36.747 24.5861 36.8414C24.6643 36.8414 24.6755 36.747 24.7538 36.705C25.1004 36.8204 25.0221 36.8309 25.0668 36.9044L25.2122 37.0828L25.1227 37.0303C24.3289 37.1038 24.9439 37.2821 24.4184 37.3976C24.9215 37.2821 24.6979 37.3976 25.0445 37.3976C25.1227 37.3976 25.2234 37.534 25.324 37.5235C25.0445 37.576 25.514 37.6809 25.1116 37.7543C25.2122 37.7543 25.1116 37.8383 25.3799 37.8593C25.2904 37.9537 25.201 37.8593 25.0668 37.7963C24.6867 37.9012 25.4358 38.258 24.8768 38.3944C24.6308 38.5518 24.2618 38.5098 24.0494 38.6463C24.1759 38.6887 24.3142 38.6887 24.4407 38.6463C24.5749 38.7722 24.5302 38.8456 24.4407 38.9086C24.5412 38.9163 24.6376 38.9489 24.7202 39.003C24.7202 39.0765 24.3178 38.9506 24.4407 39.087C24.5893 39.1025 24.7393 39.1025 24.8879 39.087C24.765 39.1499 24.5414 39.1814 24.4072 39.2444C24.5463 39.2801 24.693 39.2801 24.832 39.2444C24.7636 39.3136 24.6769 39.3647 24.5807 39.3923C24.4845 39.42 24.3822 39.4232 24.2842 39.4018L24.2059 39.3073C24.2059 39.3073 24.4407 39.4018 24.5078 39.3913C24.7538 39.3913 24.4519 39.2339 24.3401 39.2024H24.2619C23.6693 38.9611 24.4407 38.9925 24.4519 38.8456L23.9823 38.7827L24.1948 38.8246C24.083 38.7722 23.837 38.6882 23.7587 38.7302C23.5575 38.5938 23.9376 38.7302 23.7587 38.5623C23.7333 38.5543 23.7059 38.5543 23.6805 38.5623H23.837C23.7364 38.5623 23.524 38.4784 23.5799 38.5623C23.3451 38.3524 23.9712 38.3944 23.5799 38.2685C23.7811 38.0901 23.9153 38.2685 24.3401 38.2685L23.5463 38.0062H23.8817C23.8817 38.0062 23.8817 37.9327 23.7252 37.9222C23.9712 37.9222 23.8705 37.9222 24.0941 37.9222C23.8258 37.7753 24.2842 37.6494 23.7476 37.555C24.0047 37.555 23.9376 37.6809 24.1277 37.555C23.5463 37.45 24.2395 37.4395 23.9823 37.3031C23.7252 37.1667 23.837 37.4081 23.5799 37.3031C24.0941 37.3031 23.4904 37.1143 23.5799 37.0408C23.9823 37.0408 23.7699 36.8834 23.9153 36.7575C23.7811 36.7575 23.6917 36.4952 23.5463 36.3692H23.4792C23.8929 36.3692 23.8146 36.2223 23.9041 36.1279C23.7471 36.1145 23.5891 36.1398 23.4457 36.2013V36.1069C23.5428 36.1051 23.6352 36.0674 23.7028 36.002H23.3898C23.3898 35.8866 23.7587 35.7501 23.5351 35.6137C23.8258 35.6137 24.3401 35.6977 24.519 35.5193C24.3567 35.51 24.1939 35.5277 24.0382 35.5718C24.0382 35.5718 24.1612 35.5193 24.0382 35.4983L23.7811 35.5718C23.6693 35.5088 23.9935 35.5193 23.9712 35.4668C23.7476 35.4668 23.8035 35.4668 23.6358 35.4668C23.468 35.4668 23.7252 35.4668 23.6358 35.5403C23.5399 35.4529 23.4116 35.404 23.278 35.4039C23.4121 35.4039 23.5799 35.4039 23.6022 35.3304C23.6246 35.257 23.3339 35.3304 23.2109 35.257C23.3674 35.257 23.2109 35.152 23.524 35.1206C23.524 35.1206 23.3674 35.1206 23.278 35.1206C23.4121 35.0471 23.278 34.8372 23.6469 34.8687C23.9488 34.6169 23.3898 34.4805 23.4904 34.2601H23.3898C23.4904 34.1237 23.3898 33.9873 23.6246 33.8509C23.6246 33.8509 23.4121 33.8509 23.2892 33.8509C23.3451 33.7459 23.4569 33.7145 23.2892 33.62C23.1326 33.7564 23.1215 33.62 23.1774 33.7459C23.0544 33.6515 22.8755 33.6725 23.1774 33.4836C22.9202 33.5885 22.8084 33.4836 22.8755 33.4102H23.0879C23.1038 33.3866 23.1123 33.3593 23.1123 33.3315C23.1123 33.3036 23.1038 33.2763 23.0879 33.2528L22.7413 33.3787C22.2494 33.2842 23.3674 32.7491 22.5736 32.8016C22.7972 32.6651 22.7972 32.8645 23.0656 32.7281C22.9761 32.6337 22.4283 32.7281 22.4171 32.6651C22.1711 32.5917 22.8755 32.3608 22.6854 32.2559C22.8196 32.2559 23.155 32.13 23.2221 31.9726C23.2892 31.8152 22.6631 32.0356 22.5848 32.1405C22.5065 32.2454 22.5848 32.1405 22.6742 32.1405C22.6518 32.1771 22.6191 32.2072 22.5796 32.2275C22.5402 32.2479 22.4956 32.2577 22.4506 32.2559L22.5736 32.2034C22.4283 32.2034 22.3836 32.0565 22.1935 32.2034C22.205 32.1799 22.2218 32.1589 22.2428 32.1421C22.2638 32.1252 22.2885 32.1129 22.3151 32.1059C22.3417 32.0989 22.3696 32.0974 22.3969 32.1016C22.4242 32.1057 22.4501 32.1154 22.473 32.13C22.2494 32.067 22.3724 31.9306 22.1935 31.8467C22.2718 31.8467 22.4283 31.7942 22.4171 31.7732C22.1711 31.6473 22.6072 31.5948 22.5848 31.4374C22.3724 31.4374 22.16 31.6578 22.2494 31.4374C22.0929 31.4374 21.9252 31.5634 21.8469 31.6368C22.0146 31.4165 21.5898 31.4794 21.5115 31.4374L21.4444 31.5424C21.4574 31.5236 21.4643 31.5018 21.4643 31.4794C21.4643 31.4571 21.4574 31.4352 21.4444 31.4165L21.7016 31.343C21.6345 31.343 21.6233 31.343 21.5227 31.343C21.6568 31.2381 21.9363 31.1856 22.1041 31.0177C21.9587 31.0177 22.1041 30.8079 21.8245 30.9443C22.0258 31.0387 21.5115 31.0807 21.5227 31.2276C21.5227 31.2276 21.5227 31.1541 21.4668 31.1436C21.4524 31.1477 21.4391 31.1545 21.4276 31.1635C21.416 31.1725 21.4066 31.1836 21.3997 31.1961C21.0419 31.1961 21.7127 30.9653 21.6233 30.8183C21.4556 30.9233 21.2655 30.9548 21.2879 30.9128C21.3103 30.8708 21.6009 30.7869 21.7016 30.6714C21.5115 30.6714 21.7016 30.514 21.7016 30.4721H21.791C21.9587 30.3566 21.9028 30.3252 21.9252 30.2307C21.7798 30.2937 21.8581 30.3357 21.791 30.3462C22.0481 30.1048 21.3773 30.3462 21.5227 30.1363C21.3773 30.1363 21.1984 30.3042 21.0978 30.3147C21.2432 30.0838 20.7848 30.3147 20.8854 30.1153C20.986 29.9159 21.0866 30.0523 21.2432 29.8425V30.1258L21.4891 29.811C21.4891 29.8635 21.4221 30.0104 21.4891 30.0314C21.6345 29.8635 21.5786 29.8949 21.791 29.8215C21.3997 29.9369 21.8804 29.5487 21.5898 29.5802L21.0307 29.9159C20.6953 29.9159 21.1537 29.5067 20.8854 29.4123H21.0196C21.2208 29.2444 21.0196 29.2758 21.0196 29.1709C20.8951 29.2479 20.7595 29.308 20.6171 29.3493C20.7512 29.2654 20.5053 29.2339 20.8519 28.982L20.5612 29.066C20.3599 28.9925 20.9413 28.5518 20.7736 28.4574C20.6059 28.6358 20.4382 28.6672 20.3711 28.8561C20.3711 28.8561 20.2705 28.7932 20.3711 28.7092C20.2481 28.7617 20.5053 28.4049 20.3711 28.4889C20.3711 28.4154 20.6059 28.2685 20.55 28.237C20.5173 28.2541 20.4872 28.2753 20.4605 28.3C20.55 28.237 20.4605 28.1321 20.7401 28.0377C20.0804 28.3105 20.427 27.6284 19.8792 27.8803C19.853 27.7444 19.8039 27.6134 19.7338 27.492C19.7338 27.5445 19.6556 27.5655 19.7338 27.5655C19.4655 27.5655 20.1251 27.0933 19.8233 27.1143C19.5214 27.1352 19.7562 27.3031 19.6108 27.3556C19.0742 27.8068 19.5214 27.1352 19.1413 27.3556V27.4081C18.8953 27.5025 19.1413 27.0723 19.0295 26.9988L18.9512 27.0723C19.0174 26.9691 19.0578 26.8532 19.0694 26.7332C19.081 26.6133 19.0636 26.4924 19.0183 26.3797C18.8618 26.6001 19.0183 26.5266 18.75 26.705C18.75 26.6316 19.0854 26.4007 19.0295 26.2538C18.8398 26.3344 18.6659 26.4444 18.5152 26.5791L18.6046 26.6735C18.2916 26.9044 18.4928 26.5581 18.3922 26.5686L18.2804 26.6945C18.1798 26.5371 18.4593 26.2223 18.2804 26.1174L18.381 26.0335C18.5711 25.6452 18.1574 26.1489 18.2692 25.8551L17.9673 26.1594C18.0063 25.9582 18.0063 25.752 17.9673 25.5508C17.8821 25.7776 17.8295 26.014 17.8108 26.2538C17.7532 26.2138 17.7134 26.1553 17.699 26.0895C17.6845 26.0236 17.6965 25.9551 17.7326 25.897C17.7326 25.9495 17.7326 26.0544 17.7326 26.023C17.8667 25.7082 17.8779 25.5088 17.7326 25.4248C17.2406 26.0964 17.2965 25.3724 16.8158 25.8341C16.8158 25.4563 16.3127 25.6767 16.1002 25.4773C16.5474 25.0051 16.0331 25.4144 16.4133 24.8897C16.4133 24.8162 16.3462 24.8162 16.3127 24.8897L15.9102 25.1101C15.7648 25.2465 15.9102 25.2675 15.8095 25.3829C15.7089 25.4983 15.6083 25.5822 15.4294 25.6872C15.5636 25.4983 15.5636 25.3724 15.4294 25.4144L15.6977 25.215C15.6977 24.8162 15.2393 25.5927 15.2393 25.215V25.4248C15.2393 25.2675 14.8928 25.236 15.0493 24.7428C15.0493 24.7953 14.8816 24.9422 14.9039 25.0051C14.6356 25.0051 14.6468 24.2601 14.3114 24.449L14.2555 24.6064C14.2555 24.5434 14.3226 24.3021 14.1884 24.4175C14.0542 24.5329 14.1325 24.5644 14.1101 24.5644C14.0878 24.5644 14.1101 24.2706 14.0095 24.3231V24.5015C13.6853 24.5854 13.8418 23.9558 13.6853 23.7669C13.484 24.1971 13.2381 24.2496 13.1039 24.2811V24.3441C12.802 24.2916 12.7909 23.8089 12.6008 23.5361C12.243 23.9348 11.9635 23.5361 11.5946 23.704C11.6715 23.5843 11.703 23.4438 11.684 23.3052C11.5946 23.3787 11.6281 22.9485 11.4828 23.3052C11.2815 23.683 11.2033 23.5361 11.0914 23.5151L11.2703 22.9904C10.7337 23.6725 10.6666 22.4868 10.2865 23.1373C10.2865 22.9799 10.1858 22.9694 10.1635 22.812L10.074 23.0954C9.98911 23.1199 9.89916 23.1251 9.81166 23.1105C9.72417 23.0959 9.64164 23.0619 9.57093 23.0114V23.0849C9.43676 23.0849 9.66037 22.2244 9.57093 22.172L9.4144 22.5917C9.20198 22.5182 8.86657 22.854 8.75476 22.4133C8.75476 22.4763 8.75476 22.6022 8.75476 22.6232C8.75476 22.6442 8.28519 22.8225 8.47526 22.2349C8.37463 22.6232 8.24047 22.2349 8.15103 22.0251V22.3084C8.15103 21.9306 8.15103 21.8257 8.03922 21.6998C7.92742 21.5739 7.94978 21.9201 8.03922 21.8572C7.8827 21.9831 8.03922 21.5634 7.83798 21.6893V21.8782C7.715 21.8782 7.74854 21.7837 7.73736 21.5529C7.72618 21.322 7.49139 21.5529 7.41313 21.8362C7.41313 21.6788 7.41313 21.4479 7.33486 21.5109C7.31271 21.5721 7.31271 21.6385 7.33486 21.6998C7.0889 21.8572 7.11126 21.3115 6.91002 21.5739C6.91982 21.6294 6.91982 21.6862 6.91002 21.7417C7.06654 21.7417 7.2007 21.7417 7.18952 21.7417C7.13362 22.0041 6.99946 22.0356 7.01064 22.4133C7.01064 22.193 6.87647 21.7313 6.73113 21.8362V21.9201C6.73113 21.9201 6.73113 21.9201 6.66405 21.8677C6.59697 21.8152 6.58579 21.9306 6.55225 21.9201C6.48516 22.1405 6.38454 22.0146 6.31746 22.0146C6.38454 21.7208 6.31746 21.7522 6.41808 21.5319C6.41808 21.5319 6.41808 21.5319 6.41808 21.5843L6.30628 21.7208C6.30628 21.5634 6.30628 21.4269 6.16093 21.5739C6.16093 21.385 6.16093 21.1856 6.16093 21.0912C5.98205 21.4794 5.7808 21.6683 5.70254 21.9201C5.54602 21.7208 5.27769 21.7313 5.25533 21.1646C5.25533 21.0912 5.16589 21.3115 5.12116 21.3955C5.07644 21.4794 5.18825 21.4479 5.18825 21.5319C5.0988 21.3745 4.8752 21.4269 4.91992 21.0387C4.74103 21.1856 4.91992 21.406 4.75222 21.3115V21.4269C4.27146 21.9831 4.305 20.3776 3.75717 21.0807C3.79237 21.0459 3.81572 21.0021 3.82425 20.9548C3.29877 21.2381 2.8851 20.4931 2.32609 20.9548C2.18074 21.0492 2.2031 20.8079 2.1472 20.6085L2.06894 20.9233L1.9795 20.535C1.82298 20.2517 1.53229 21.2591 1.34222 20.7344L1.4093 20.5245C1.30868 20.5245 1.1298 20.3671 1.11862 20.6085C1.11862 20.6085 1.11862 20.3881 1.11862 20.4931V20.6609L0.928549 20.3462C0.738483 20.4511 0.928551 21.0072 0.615501 21.0072C0.496313 20.821 0.441624 20.6047 0.458979 20.3881C0.458979 20.3881 0.57078 20.3042 0.593142 20.1363L0.526062 20.0418C0.472273 19.6035 0.537659 19.1594 0.716125 18.7512L0.827927 19.066L0.939732 18.8876H0.816748C0.91737 18.6672 0.928553 18.8876 0.962093 19.0135C0.979988 18.9248 1.01403 18.8396 1.06272 18.7617L1.14098 19.2444C1.14098 19.0555 1.14098 18.8561 1.2416 18.7617C1.2416 18.982 1.11862 19.1814 1.2416 19.3388C1.34222 19.1289 1.34222 18.9401 1.39812 19.1394C1.42722 19.0541 1.42722 18.9624 1.39812 18.8771C1.39812 19.0345 1.58819 18.9611 1.58819 19.2234C1.69999 18.9611 1.83415 19.3283 1.89006 18.8666C1.89308 19.0137 1.94378 19.1565 2.0354 19.2758C2.0354 18.7092 2.29255 19.2758 2.34845 18.6777C2.34845 19.1814 2.65032 18.9401 2.7733 19.2339C2.7733 19.2339 2.7733 19.1184 2.7733 19.1394C2.7733 19.1604 2.92983 18.9611 2.99691 18.8771C2.98147 19.1445 3.02329 19.4121 3.11989 19.6641C3.2876 19.2863 3.11989 19.1709 3.22052 18.8037C3.22052 19.1289 3.36586 19.1604 3.27642 19.4228C3.37623 19.2961 3.44148 19.1483 3.46648 18.9925C3.46648 19.4962 3.54474 19.087 3.5671 19.4123C3.72363 19.1709 3.66773 18.9401 3.77953 19.108C3.80747 19.039 3.81698 18.9647 3.80723 18.8916C3.79749 18.8184 3.76878 18.7486 3.72363 18.6882ZM7.12244 20.1573C7.08217 20.1675 7.03972 20.1675 6.99946 20.1573C6.99946 20.2622 6.99946 20.3566 6.99946 20.3566C6.99946 20.3566 7.05536 20.2412 7.12244 20.1573ZM6.11621 22.0565C6.11621 22.109 6.1833 22.0565 6.19448 21.9936L6.12739 21.9411C6.12172 21.9724 6.11799 22.0039 6.11621 22.0356V22.0565Z" fill="#547050" fill-opacity="0.2"/>
<path d="M11.0449 20.5142L11.0226 20.5876V20.5142H11.0449Z" fill="#547050" fill-opacity="0.2"/>
<path d="M24.9648 36.7261L25.0654 36.831C25.0095 36.8205 24.976 36.7995 24.9648 36.7261Z" fill="#547050" fill-opacity="0.2"/>
<path d="M23.5354 29.4545C23.5689 29.3811 23.5689 29.3811 23.5354 29.4545V29.4545Z" fill="#547050" fill-opacity="0.2"/>
<path d="M23.9251 31.8781L24.037 31.7627C24.037 31.7627 24.0929 31.8257 23.9251 31.8781Z" fill="#547050" fill-opacity="0.2"/>
<path d="M22.249 27.0208L22.2378 27.0093L22.249 27.0208Z" fill="#547050" fill-opacity="0.2"/>
<path d="M23.9927 31.6577C24.0597 31.6577 24.0597 31.7207 23.9927 31.7626C23.9256 31.8046 23.9591 31.7102 23.9927 31.6577Z" fill="#547050" fill-opacity="0.2"/>
<path d="M24.5185 39.5386H24.6191C24.6191 39.5386 24.608 39.5616 24.5185 39.5386Z" fill="#547050" fill-opacity="0.2"/>
<path d="M24.8541 38.6045C24.8541 38.657 25.0665 38.7724 24.977 38.8248H24.8876C25.0553 38.8248 24.6528 38.6045 24.8541 38.6045Z" fill="#547050" fill-opacity="0.2"/>
<path d="M23.6458 37.5654L23.7129 37.7228C23.6011 37.7228 23.4446 37.6179 23.3998 37.7228C23.0756 37.45 23.6682 37.7753 23.6458 37.5654Z" fill="#547050" fill-opacity="0.2"/>
<path d="M23.5234 37.0835C23.4564 37.1569 23.3446 37.0835 23.2775 37.0835C23.3893 37.0205 23.4228 37.01 23.5234 37.0835Z" fill="#547050" fill-opacity="0.2"/>
<path d="M23.2881 33.7563L23.0198 33.8298C23.0757 33.7564 23.0757 33.8088 23.2881 33.7563Z" fill="#547050" fill-opacity="0.2"/>
<path d="M24.5297 32.7598L24.7197 32.7808L24.4738 32.8752L24.5297 32.7598Z" fill="#547050" fill-opacity="0.2"/>
<path d="M22.4723 32.9382L22.4388 32.9697L22.5059 32.8438L22.4723 32.9382Z" fill="#547050" fill-opacity="0.2"/>
<path d="M19.6443 28.143L19.9238 27.9331C19.9126 28.0066 19.6108 28.2584 19.6443 28.143Z" fill="#547050" fill-opacity="0.2"/>
<path d="M18.0557 26.2331C17.9215 26.338 17.7873 26.38 17.8656 26.2331C17.9215 26.2331 18.0557 26.1492 18.0557 26.2331Z" fill="#547050" fill-opacity="0.2"/>
<path d="M10.8785 23.2529L10.8896 23.3684L10.8226 23.2529H10.8785Z" fill="#547050" fill-opacity="0.2"/>
</g>
<defs>
<clipPath id="clip0_534_19935">
<rect width="70" height="40" fill="white" transform="matrix(-1 0 0 1 70 0)"/>
</clipPath>
</defs>
</svg>
