<svg width="305" height="40" viewBox="0 0 305 40" fill="none" xmlns="http://www.w3.org/2000/svg">
<path fill-rule="evenodd" clip-rule="evenodd" d="M21.2085 20C21.2085 32.1644 29.3011 40 41.8281 40C54.4105 40 62.4477 32.1644 62.4477 20C62.4477 7.83562 54.4105 0 41.8281 0C29.3011 0 21.2085 7.83562 21.2085 20ZM57.9579 20C57.9579 29.5342 51.639 35.6164 41.8281 35.6164C32.0172 35.6164 25.6982 29.5342 25.6982 20C25.6982 10.5205 32.0172 4.38356 41.8281 4.38356C51.639 4.38356 57.9579 10.5205 57.9579 20ZM4.48975 34.7397V0.821917H0V39.1781H23.5573V34.7397H4.48975ZM103.413 38.9972L105.611 35.8188L107.847 38.6617V19.726H99.4222L98.9234 22.6301C97.2605 30.2466 94.0456 35.2877 85.3987 35.2877C75.4769 35.2877 69.4352 28.9863 69.4352 19.9452V19.8904C69.4352 11.2877 75.4215 4.71233 85.3987 4.71233C94.7662 4.71233 100.198 10.137 100.919 16.4384H105.242C104.466 7.39726 97.4822 0.273972 85.3433 0.273972C72.7609 0.273972 64.9454 8.38356 64.9454 19.726V19.7808C64.9454 31.6164 72.7609 39.726 85.3433 39.726C96.7616 39.726 101.418 32.9863 103.413 22.6301V38.9972ZM110.685 20C110.685 32.1644 118.778 40 131.305 40C143.887 40 151.924 32.1644 151.924 20C151.924 7.83562 143.887 0 131.305 0C118.778 0 110.685 7.83562 110.685 20ZM147.435 20C147.435 29.5342 141.116 35.6164 131.305 35.6164C121.494 35.6164 115.175 29.5342 115.175 20C115.175 10.5205 121.494 4.38356 131.305 4.38356C141.116 4.38356 147.435 10.5205 147.435 20ZM178.7 19.2329C183.966 20.7123 186.737 24.2192 186.737 28.8767V28.9315C186.737 35.726 181.915 39.1781 172.824 39.1781H154.865V0.821917H170.607C179.199 0.821917 183.966 4.38356 183.966 11.0137V11.0685C183.966 14.6849 182.137 17.589 178.7 19.2329ZM170.829 5.09589H159.355V17.6438H170.829C176.427 17.6438 179.476 15.1781 179.476 11.3425V11.2877C179.476 7.23288 176.372 5.09589 170.829 5.09589ZM182.247 28.6575V28.6027C182.247 24.6027 179.199 21.9178 173.212 21.9178H159.355V34.9041H173.212C179.199 34.9041 182.247 32.7123 182.247 28.6575ZM187.983 20C187.983 32.1644 196.075 40 208.602 40C221.184 40 229.222 32.1644 229.222 20C229.222 7.83562 221.184 0 208.602 0C196.075 0 187.983 7.83562 187.983 20ZM224.732 20C224.732 29.5342 218.413 35.6164 208.602 35.6164C198.791 35.6164 192.472 29.5342 192.472 20C192.472 10.5205 198.791 4.38356 208.602 4.38356C218.413 4.38356 224.732 10.5205 224.732 20ZM252.339 40C239.812 40 231.719 32.1644 231.719 20C231.719 7.83562 239.812 0 252.339 0C264.921 0 272.959 7.83562 272.959 20C272.959 32.1644 264.921 40 252.339 40ZM252.339 35.6164C262.15 35.6164 268.469 29.5342 268.469 20C268.469 10.5205 262.15 4.38356 252.339 4.38356C242.528 4.38356 236.209 10.5205 236.209 20C236.209 29.5342 242.528 35.6164 252.339 35.6164ZM305 3.39726L301.73 0.273972L280.39 19.5069V0.821917H275.9V39.1781H280.39V20.4932L301.73 39.726L305 36.6027L286.099 20L305 3.39726Z" fill="#F3EECE"/>
</svg>
